# 3ds Max Wavefront OBJ Exporter v0.97b - (c)2007 guruware
# File Created: 06.07.2016 21:15:18

#
# object t_wood
#

v  2.6696 12.4714 -1.3431
v  2.7400 12.4714 -0.9438
v  2.7400 12.0011 -0.9438
v  2.6696 12.0011 -1.3431
v  2.4669 12.4714 -1.6942
v  2.4669 12.0011 -1.6942
v  2.1563 12.4714 -1.9548
v  2.1563 12.0011 -1.9548
v  1.7754 12.4714 -2.0934
v  1.7754 12.0011 -2.0934
v  1.3700 12.4714 -2.0934
v  1.3700 12.0011 -2.0934
v  0.9890 12.4714 -1.9548
v  0.9890 12.0011 -1.9548
v  0.6785 12.4714 -1.6942
v  0.6785 12.0011 -1.6942
v  0.4758 12.4714 -1.3431
v  0.4758 12.0011 -1.3431
v  0.4054 12.4714 -0.9438
v  0.4054 12.0011 -0.9438
v  0.4758 12.4714 -0.5446
v  0.4758 12.0011 -0.5446
v  0.6785 12.4714 -0.1935
v  0.6785 12.0011 -0.1935
v  0.9890 12.4714 0.0671
v  0.9890 12.0011 0.0671
v  1.3700 12.4714 0.2057
v  1.3700 12.0011 0.2057
v  1.7754 12.4714 0.2057
v  1.7754 12.0011 0.2057
v  2.1563 12.4714 0.0671
v  2.1563 12.0011 0.0671
v  2.4669 12.4714 -0.1935
v  2.4669 12.0011 -0.1935
v  2.6696 12.4714 -0.5446
v  2.6696 12.0011 -0.5446
v  2.4166 12.4714 -1.2510
v  2.4707 12.4714 -0.9438
v  2.2606 12.4714 -1.5211
v  2.0217 12.4714 -1.7216
v  1.7286 12.4714 -1.8282
v  1.4167 12.4714 -1.8282
v  1.1237 12.4714 -1.7216
v  0.8847 12.4714 -1.5211
v  0.7288 12.4714 -1.2510
v  0.6746 12.4714 -0.9438
v  0.7288 12.4714 -0.6367
v  0.8847 12.4714 -0.3666
v  1.1237 12.4714 -0.1661
v  1.4167 12.4714 -0.0595
v  1.7286 12.4714 -0.0595
v  2.0217 12.4714 -0.1661
v  2.2606 12.4714 -0.3666
v  2.4166 12.4714 -0.6367
v  1.5727 12.4714 -0.9438
# 55 vertices

vn 0.9397 0.0000 -0.3420
vn 1.0000 0.0000 0.0000
vn 0.7660 0.0000 -0.6428
vn 0.5000 0.0000 -0.8660
vn 0.5000 -0.0000 -0.8660
vn 0.1736 -0.0000 -0.9848
vn -0.1736 -0.0000 -0.9848
vn -0.1736 0.0000 -0.9848
vn -0.5000 0.0000 -0.8660
vn -0.7660 0.0000 -0.6428
vn -0.9397 0.0000 -0.3420
vn -1.0000 0.0000 0.0000
vn -0.9397 0.0000 0.3420
vn -0.7660 0.0000 0.6428
vn -0.5000 0.0000 0.8660
vn -0.1736 0.0000 0.9848
vn 0.1736 0.0000 0.9848
vn 0.5000 0.0000 0.8660
vn 0.7660 0.0000 0.6428
vn 0.9397 0.0000 0.3420
vn -0.0000 1.0000 0.0000
vn 0.0000 1.0000 0.0000
vn 0.0000 1.0000 -0.0000
vn -0.0000 1.0000 -0.0000
# 24 vertex normals

vt 0.7406 0.8563 0.0000
vt 0.6994 0.8571 0.0000
vt 0.6982 0.7951 0.0000
vt 0.7394 0.7943 0.0000
vt 0.4128 0.7767 0.0000
vt 0.3715 0.7765 0.0000
vt 0.3718 0.7145 0.0000
vt 0.4131 0.7147 0.0000
vt 0.4540 0.7769 0.0000
vt 0.4543 0.7149 0.0000
vt 0.4953 0.7771 0.0000
vt 0.4956 0.7151 0.0000
vt 0.5366 0.7773 0.0000
vt 0.5369 0.7153 0.0000
vt 0.5779 0.7774 0.0000
vt 0.5781 0.7154 0.0000
vt 0.6192 0.7776 0.0000
vt 0.6194 0.7155 0.0000
vt 0.6606 0.7776 0.0000
vt 0.6606 0.7156 0.0000
vt 0.7019 0.7777 0.0000
vt 0.7019 0.7157 0.0000
vt 0.7432 0.7776 0.0000
vt 0.7431 0.7156 0.0000
vt 0.4099 0.8608 0.0000
vt 0.3686 0.8609 0.0000
vt 0.3685 0.7989 0.0000
vt 0.4097 0.7988 0.0000
vt 0.4513 0.8606 0.0000
vt 0.4509 0.7986 0.0000
vt 0.4927 0.8603 0.0000
vt 0.4921 0.7983 0.0000
vt 0.5340 0.8599 0.0000
vt 0.5333 0.7978 0.0000
vt 0.5754 0.8593 0.0000
vt 0.5745 0.7973 0.0000
vt 0.6168 0.8587 0.0000
vt 0.6157 0.7967 0.0000
vt 0.6581 0.8579 0.0000
vt 0.6569 0.7959 0.0000
vt 0.1840 0.9511 0.0000
vt 0.2178 0.9388 0.0000
vt 0.2332 0.9661 0.0000
vt 0.1893 0.9821 0.0000
vt 0.1482 0.9509 0.0000
vt 0.1426 0.9818 0.0000
vt 0.1145 0.9383 0.0000
vt 0.0989 0.9654 0.0000
vt 0.0871 0.9147 0.0000
vt 0.0633 0.9348 0.0000
vt 0.0694 0.8831 0.0000
vt 0.0402 0.8937 0.0000
vt 0.0633 0.8472 0.0000
vt 0.0323 0.8471 0.0000
vt 0.0697 0.8114 0.0000
vt 0.0407 0.8005 0.0000
vt 0.0878 0.7800 0.0000
vt 0.0642 0.7597 0.0000
vt 0.1154 0.7567 0.0000
vt 0.1001 0.7294 0.0000
vt 0.1492 0.7445 0.0000
vt 0.1440 0.7135 0.0000
vt 0.1851 0.7447 0.0000
vt 0.1906 0.7137 0.0000
vt 0.2187 0.7573 0.0000
vt 0.2343 0.7301 0.0000
vt 0.2461 0.7808 0.0000
vt 0.2699 0.7607 0.0000
vt 0.2639 0.8124 0.0000
vt 0.2930 0.8018 0.0000
vt 0.2699 0.8483 0.0000
vt 0.3009 0.8485 0.0000
vt 0.2635 0.8841 0.0000
vt 0.2926 0.8950 0.0000
vt 0.2454 0.9156 0.0000
vt 0.2690 0.9359 0.0000
vt 0.1666 0.8478 0.0000
# 77 texture coords

g t_wood
s 1
f 1/1/1 2/2/2 3/3/2 4/4/1 
f 5/5/3 1/6/1 4/7/1 6/8/3 
f 7/9/4 5/5/3 6/8/3 8/10/5 
f 9/11/6 7/9/4 8/10/5 10/12/6 
f 11/13/7 9/11/6 10/12/6 12/14/8 
f 13/15/9 11/13/7 12/14/8 14/16/9 
f 15/17/10 13/15/9 14/16/9 16/18/10 
f 17/19/11 15/17/10 16/18/10 18/20/11 
f 19/21/12 17/19/11 18/20/11 20/22/12 
f 21/23/13 19/21/12 20/22/12 22/24/13 
f 23/25/14 21/26/13 22/27/13 24/28/14 
f 25/29/15 23/25/14 24/28/14 26/30/15 
f 27/31/16 25/29/15 26/30/15 28/32/16 
f 29/33/17 27/31/16 28/32/16 30/34/17 
f 31/35/18 29/33/17 30/34/17 32/36/18 
f 33/37/19 31/35/18 32/36/18 34/38/19 
f 35/39/20 33/37/19 34/38/19 36/40/20 
f 2/2/2 35/39/20 36/40/20 3/3/2 
s off
f 37/41/21 38/42/21 2/43/21 1/44/21 
f 39/45/21 37/41/21 1/44/21 5/46/21 
f 40/47/21 39/45/21 5/46/21 7/48/21 
f 41/49/21 40/47/21 7/48/21 9/50/21 
f 42/51/21 41/49/21 9/50/21 11/52/21 
f 43/53/22 42/51/22 11/52/22 13/54/22 
f 44/55/22 43/53/22 13/54/22 15/56/22 
f 45/57/22 44/55/22 15/56/22 17/58/22 
f 46/59/22 45/57/22 17/58/22 19/60/22 
f 47/61/23 46/59/23 19/60/23 21/62/23 
f 48/63/23 47/61/23 21/62/23 23/64/23 
f 49/65/23 48/63/23 23/64/23 25/66/23 
f 50/67/24 49/65/24 25/66/24 27/68/24 
f 51/69/23 50/67/23 27/68/23 29/70/23 
f 52/71/24 51/69/24 29/70/24 31/72/24 
f 53/73/24 52/71/24 31/72/24 33/74/24 
f 54/75/24 53/73/24 33/74/24 35/76/24 
f 38/42/24 54/75/24 35/76/24 2/43/24 
f 37/41/23 55/77/23 38/42/23 
f 39/45/23 55/77/23 37/41/23 
f 40/47/23 55/77/23 39/45/23 
f 41/49/23 55/77/23 40/47/23 
f 42/51/23 55/77/23 41/49/23 
f 43/53/23 55/77/23 42/51/23 
f 44/55/23 55/77/23 43/53/23 
f 45/57/23 55/77/23 44/55/23 
f 46/59/21 55/77/21 45/57/21 
f 47/61/21 55/77/21 46/59/21 
f 48/63/24 55/77/24 47/61/24 
f 49/65/22 55/77/22 48/63/22 
f 50/67/24 55/77/24 49/65/24 
f 51/69/23 55/77/23 50/67/23 
f 52/71/23 55/77/23 51/69/23 
f 53/73/23 55/77/23 52/71/23 
f 54/75/23 55/77/23 53/73/23 
f 38/42/23 55/77/23 54/75/23 
# 36 polygons - 18 triangles

