# 3ds Max Wavefront OBJ Exporter v0.97b - (c)2007 guruware
# File Created: 07.07.2016 16:43:33

#
# object t_wood
#

v  1.1673 0.2351 -0.0000
v  1.1673 -0.2351 -0.0000
v  1.0969 -0.2351 -0.3993
v  1.0969 0.2351 -0.3993
v  0.8942 -0.2351 -0.7504
v  0.8942 0.2351 -0.7504
v  0.5836 -0.2351 -1.0110
v  0.5836 0.2351 -1.0110
v  0.2027 -0.2351 -1.1496
v  0.2027 0.2351 -1.1496
v  -0.2027 -0.2351 -1.1496
v  -0.2027 0.2351 -1.1496
v  -0.5837 -0.2351 -1.0110
v  -0.5837 0.2351 -1.0110
v  -0.8942 -0.2351 -0.7504
v  -0.8942 0.2351 -0.7504
v  -1.0969 -0.2351 -0.3993
v  -1.0969 0.2351 -0.3993
v  -1.1673 -0.2351 -0.0000
v  -1.1673 0.2351 -0.0000
v  -1.0969 -0.2351 0.3992
v  -1.0969 0.2351 0.3992
v  -0.8942 -0.2351 0.7503
v  -0.8942 0.2351 0.7503
v  -0.5837 -0.2351 1.0109
v  -0.5837 0.2351 1.0109
v  -0.2027 -0.2351 1.1495
v  -0.2027 0.2351 1.1495
v  0.2027 -0.2351 1.1495
v  0.2027 0.2351 1.1495
v  0.5836 -0.2351 1.0109
v  0.5836 0.2351 1.0109
v  0.8942 -0.2351 0.7503
v  0.8942 0.2351 0.7503
v  1.0969 -0.2351 0.3992
v  1.0969 0.2351 0.3992
v  0.8980 0.2351 -0.0000
v  0.8439 0.2351 -0.3072
v  0.6879 0.2351 -0.5773
v  0.4490 0.2351 -0.7778
v  0.1559 0.2351 -0.8844
v  -0.1560 0.2351 -0.8844
v  -0.4490 0.2351 -0.7778
v  -0.6880 0.2351 -0.5773
v  -0.8439 0.2351 -0.3072
v  -0.8981 0.2351 -0.0000
v  -0.8439 0.2351 0.3071
v  -0.6880 0.2351 0.5772
v  -0.4490 0.2351 0.7777
v  -0.1560 0.2351 0.8843
v  0.1559 0.2351 0.8843
v  0.4490 0.2351 0.7777
v  0.6879 0.2351 0.5772
v  0.8439 0.2351 0.3071
v  0.0000 0.2351 -0.0000
# 55 vertices

vn 0.9397 0.0000 -0.3420
vn 1.0000 0.0000 -0.0000
vn 1.0000 0.0000 -0.0000
vn 0.9397 0.0000 -0.3420
vn 0.7660 0.0000 -0.6428
vn 0.9397 0.0000 -0.3420
vn 0.9397 0.0000 -0.3420
vn 0.7660 0.0000 -0.6428
vn 0.5000 0.0000 -0.8660
vn 0.7660 0.0000 -0.6428
vn 0.7660 0.0000 -0.6428
vn 0.5000 0.0000 -0.8660
vn 0.1736 0.0000 -0.9848
vn 0.5000 0.0000 -0.8660
vn 0.5000 0.0000 -0.8660
vn 0.1736 0.0000 -0.9848
vn -0.1736 0.0000 -0.9848
vn 0.1736 0.0000 -0.9848
vn 0.1736 0.0000 -0.9848
vn -0.1736 0.0000 -0.9848
vn -0.5000 0.0000 -0.8660
vn -0.1736 0.0000 -0.9848
vn -0.1736 0.0000 -0.9848
vn -0.5000 0.0000 -0.8660
vn -0.7660 0.0000 -0.6428
vn -0.5000 0.0000 -0.8660
vn -0.5000 0.0000 -0.8660
vn -0.7660 0.0000 -0.6428
vn -0.9397 0.0000 -0.3420
vn -0.7660 0.0000 -0.6428
vn -0.7660 0.0000 -0.6428
vn -0.9397 0.0000 -0.3420
vn -1.0000 0.0000 -0.0000
vn -0.9397 0.0000 -0.3420
vn -0.9397 0.0000 -0.3420
vn -1.0000 0.0000 -0.0000
vn -0.9397 0.0000 0.3420
vn -1.0000 0.0000 -0.0000
vn -1.0000 0.0000 -0.0000
vn -0.9397 0.0000 0.3420
vn -0.7660 0.0000 0.6428
vn -0.9397 0.0000 0.3420
vn -0.9397 0.0000 0.3420
vn -0.7660 0.0000 0.6428
vn -0.5000 0.0000 0.8660
vn -0.7660 0.0000 0.6428
vn -0.7660 0.0000 0.6428
vn -0.5000 0.0000 0.8660
vn -0.1736 0.0000 0.9848
vn -0.5000 0.0000 0.8660
vn -0.5000 0.0000 0.8660
vn -0.1736 0.0000 0.9848
vn 0.1736 0.0000 0.9848
vn -0.1736 0.0000 0.9848
vn -0.1736 0.0000 0.9848
vn 0.1736 0.0000 0.9848
vn 0.5000 0.0000 0.8660
vn 0.1736 0.0000 0.9848
vn 0.1736 0.0000 0.9848
vn 0.5000 0.0000 0.8660
vn 0.7660 0.0000 0.6428
vn 0.5000 0.0000 0.8660
vn 0.5000 0.0000 0.8660
vn 0.7660 0.0000 0.6428
vn 0.9397 0.0000 0.3420
vn 0.7660 0.0000 0.6428
vn 0.7660 0.0000 0.6428
vn 0.9397 0.0000 0.3420
vn 1.0000 0.0000 -0.0000
vn 0.9397 0.0000 0.3420
vn 0.9397 0.0000 0.3420
vn 1.0000 0.0000 -0.0000
vn 0.0000 1.0000 -0.0000
vn 0.0000 1.0000 -0.0000
vn 0.0000 1.0000 -0.0000
vn 0.0000 1.0000 -0.0000
vn 0.0000 1.0000 -0.0000
vn 0.0000 1.0000 -0.0000
vn 0.0000 1.0000 -0.0000
vn 0.0000 1.0000 -0.0000
vn 0.0000 1.0000 -0.0000
vn 0.0000 1.0000 -0.0000
vn 0.0000 1.0000 -0.0000
vn 0.0000 1.0000 -0.0000
vn 0.0000 1.0000 -0.0000
vn 0.0000 1.0000 -0.0000
vn 0.0000 1.0000 -0.0000
vn 0.0000 1.0000 -0.0000
vn 0.0000 1.0000 -0.0000
vn 0.0000 1.0000 -0.0000
vn 0.0000 1.0000 -0.0000
vn 0.0000 1.0000 -0.0000
vn 0.0000 1.0000 -0.0000
vn 0.0000 1.0000 -0.0000
vn 0.0000 1.0000 -0.0000
vn 0.0000 1.0000 -0.0000
vn 0.0000 1.0000 -0.0000
vn 0.0000 1.0000 -0.0000
vn 0.0000 1.0000 -0.0000
vn 0.0000 1.0000 -0.0000
vn 0.0000 1.0000 -0.0000
vn 0.0000 1.0000 -0.0000
vn 0.0000 1.0000 -0.0000
vn 0.0000 1.0000 -0.0000
vn 0.0000 1.0000 -0.0000
vn 0.0000 1.0000 -0.0000
vn 0.0000 1.0000 -0.0000
vn 0.0000 1.0000 -0.0000
vn 0.0000 1.0000 -0.0000
vn 0.0000 1.0000 -0.0000
vn 0.0000 1.0000 -0.0000
vn 0.0000 1.0000 -0.0000
vn 0.0000 1.0000 -0.0000
vn 0.0000 1.0000 -0.0000
vn 0.0000 1.0000 -0.0000
vn 0.0000 1.0000 -0.0000
vn 0.0000 1.0000 -0.0000
vn 0.0000 1.0000 -0.0000
vn 0.0000 1.0000 -0.0000
vn 0.0000 1.0000 -0.0000
vn 0.0000 1.0000 -0.0000
vn 0.0000 1.0000 -0.0000
vn 0.0000 1.0000 -0.0000
vn 0.0000 1.0000 -0.0000
vn 0.0000 1.0000 -0.0000
vn 0.0000 1.0000 -0.0000
vn 0.0000 1.0000 -0.0000
vn 0.0000 1.0000 -0.0000
vn 0.0000 1.0000 -0.0000
vn 0.0000 1.0000 -0.0000
vn 0.0000 1.0000 -0.0000
vn 0.0000 1.0000 -0.0000
vn 0.0000 1.0000 -0.0000
vn 0.0000 1.0000 -0.0000
vn 0.0000 1.0000 -0.0000
vn 0.0000 1.0000 -0.0000
vn 0.0000 1.0000 -0.0000
vn 0.0000 1.0000 -0.0000
vn 0.0000 1.0000 -0.0000
vn 0.0000 1.0000 -0.0000
vn 0.0000 1.0000 -0.0000
vn 0.0000 1.0000 -0.0000
vn 0.0000 1.0000 -0.0000
vn 0.0000 1.0000 -0.0000
vn 0.0000 1.0000 -0.0000
vn 0.0000 1.0000 -0.0000
vn 0.0000 1.0000 -0.0000
vn 0.0000 1.0000 -0.0000
vn 0.0000 1.0000 -0.0000
vn 0.0000 1.0000 -0.0000
vn 0.0000 1.0000 -0.0000
vn 0.0000 1.0000 -0.0000
vn 0.0000 1.0000 -0.0000
vn 0.0000 1.0000 -0.0000
vn 0.0000 1.0000 -0.0000
vn 0.0000 1.0000 -0.0000
vn 0.0000 1.0000 -0.0000
vn 0.0000 1.0000 -0.0000
vn 0.0000 1.0000 -0.0000
vn 0.0000 1.0000 -0.0000
vn 0.0000 1.0000 -0.0000
vn 0.0000 1.0000 -0.0000
vn 0.0000 1.0000 -0.0000
vn 0.0000 1.0000 -0.0000
vn 0.0000 1.0000 -0.0000
vn 0.0000 1.0000 -0.0000
vn 0.0000 1.0000 -0.0000
vn 0.0000 1.0000 -0.0000
vn 0.0000 1.0000 -0.0000
vn 0.0000 1.0000 -0.0000
vn 0.0000 1.0000 -0.0000
vn 0.0000 1.0000 -0.0000
vn 0.0000 1.0000 -0.0000
vn 0.0000 1.0000 -0.0000
vn 0.0000 1.0000 -0.0000
vn 0.0000 1.0000 -0.0000
vn 0.0000 1.0000 -0.0000
vn 0.0000 1.0000 -0.0000
vn 0.0000 1.0000 -0.0000
vn 0.0000 1.0000 -0.0000
vn 0.0000 1.0000 -0.0000
vn 0.0000 1.0000 -0.0000
vn 0.0000 1.0000 -0.0000
vn 0.0000 1.0000 -0.0000
vn 0.0000 1.0000 -0.0000
vn 0.0000 1.0000 -0.0000
vn 0.0000 1.0000 -0.0000
vn 0.0000 1.0000 -0.0000
vn 0.0000 1.0000 -0.0000
vn 0.0000 1.0000 -0.0000
vn 0.0000 1.0000 -0.0000
vn 0.0000 1.0000 -0.0000
vn 0.0000 1.0000 -0.0000
vn 0.0000 1.0000 -0.0000
vn 0.0000 1.0000 -0.0000
vn 0.0000 1.0000 -0.0000
vn 0.0000 1.0000 -0.0000
vn 0.0000 1.0000 -0.0000
# 198 vertex normals

vt 0.6994 0.8571 0.0000
vt 0.6982 0.7951 0.0000
vt 0.7394 0.7943 0.0000
vt 0.7406 0.8563 0.0000
vt 0.3715 0.7765 0.0000
vt 0.3718 0.7145 0.0000
vt 0.4131 0.7147 0.0000
vt 0.4128 0.7767 0.0000
vt 0.4543 0.7149 0.0000
vt 0.4540 0.7769 0.0000
vt 0.4956 0.7151 0.0000
vt 0.4953 0.7771 0.0000
vt 0.5369 0.7153 0.0000
vt 0.5366 0.7773 0.0000
vt 0.5781 0.7154 0.0000
vt 0.5779 0.7774 0.0000
vt 0.6194 0.7155 0.0000
vt 0.6192 0.7776 0.0000
vt 0.6606 0.7156 0.0000
vt 0.6606 0.7776 0.0000
vt 0.7019 0.7157 0.0000
vt 0.7019 0.7777 0.0000
vt 0.7431 0.7156 0.0000
vt 0.7432 0.7776 0.0000
vt 0.3686 0.8609 0.0000
vt 0.3685 0.7989 0.0000
vt 0.4097 0.7988 0.0000
vt 0.4099 0.8608 0.0000
vt 0.4509 0.7986 0.0000
vt 0.4513 0.8606 0.0000
vt 0.4921 0.7983 0.0000
vt 0.4927 0.8603 0.0000
vt 0.5333 0.7978 0.0000
vt 0.5340 0.8599 0.0000
vt 0.5745 0.7973 0.0000
vt 0.5754 0.8593 0.0000
vt 0.6157 0.7967 0.0000
vt 0.6168 0.8587 0.0000
vt 0.6569 0.7959 0.0000
vt 0.6581 0.8579 0.0000
vt 0.2178 0.9388 0.0000
vt 0.2332 0.9661 0.0000
vt 0.1893 0.9821 0.0000
vt 0.1840 0.9511 0.0000
vt 0.1426 0.9818 0.0000
vt 0.1482 0.9509 0.0000
vt 0.0989 0.9654 0.0000
vt 0.1145 0.9383 0.0000
vt 0.0633 0.9348 0.0000
vt 0.0871 0.9147 0.0000
vt 0.0402 0.8937 0.0000
vt 0.0694 0.8831 0.0000
vt 0.0323 0.8471 0.0000
vt 0.0633 0.8472 0.0000
vt 0.0407 0.8005 0.0000
vt 0.0697 0.8114 0.0000
vt 0.0642 0.7597 0.0000
vt 0.0878 0.7800 0.0000
vt 0.1001 0.7294 0.0000
vt 0.1154 0.7567 0.0000
vt 0.1440 0.7135 0.0000
vt 0.1492 0.7445 0.0000
vt 0.1906 0.7137 0.0000
vt 0.1851 0.7447 0.0000
vt 0.2343 0.7301 0.0000
vt 0.2187 0.7573 0.0000
vt 0.2699 0.7607 0.0000
vt 0.2461 0.7808 0.0000
vt 0.2930 0.8018 0.0000
vt 0.2639 0.8124 0.0000
vt 0.3009 0.8485 0.0000
vt 0.2699 0.8483 0.0000
vt 0.2926 0.8950 0.0000
vt 0.2635 0.8841 0.0000
vt 0.2690 0.9359 0.0000
vt 0.2454 0.9156 0.0000
vt 0.1666 0.8478 0.0000
# 77 texture coords

g t_wood
s off
f 4/4/1 1/1/2 2/2/3 3/3/4 
f 6/8/5 4/5/6 3/6/7 5/7/8 
f 8/10/9 6/8/10 5/7/11 7/9/12 
f 10/12/13 8/10/14 7/9/15 9/11/16 
f 12/14/17 10/12/18 9/11/19 11/13/20 
f 14/16/21 12/14/22 11/13/23 13/15/24 
f 16/18/25 14/16/26 13/15/27 15/17/28 
f 18/20/29 16/18/30 15/17/31 17/19/32 
f 20/22/33 18/20/34 17/19/35 19/21/36 
f 22/24/37 20/22/38 19/21/39 21/23/40 
f 24/28/41 22/25/42 21/26/43 23/27/44 
f 26/30/45 24/28/46 23/27/47 25/29/48 
f 28/32/49 26/30/50 25/29/51 27/31/52 
f 30/34/53 28/32/54 27/31/55 29/33/56 
f 32/36/57 30/34/58 29/33/59 31/35/60 
f 34/38/61 32/36/62 31/35/63 33/37/64 
f 36/40/65 34/38/66 33/37/67 35/39/68 
f 1/1/69 36/40/70 35/39/71 2/2/72 
f 38/44/73 37/41/74 1/42/75 4/43/76 
f 39/46/77 38/44/78 4/43/79 6/45/80 
f 40/48/81 39/46/82 6/45/83 8/47/84 
f 41/50/85 40/48/86 8/47/87 10/49/88 
f 42/52/89 41/50/90 10/49/91 12/51/92 
f 43/54/93 42/52/94 12/51/95 14/53/96 
f 44/56/97 43/54/98 14/53/99 16/55/100 
f 45/58/101 44/56/102 16/55/103 18/57/104 
f 46/60/105 45/58/106 18/57/107 20/59/108 
f 47/62/109 46/60/110 20/59/111 22/61/112 
f 48/64/113 47/62/114 22/61/115 24/63/116 
f 49/66/117 48/64/118 24/63/119 26/65/120 
f 50/68/121 49/66/122 26/65/123 28/67/124 
f 51/70/125 50/68/126 28/67/127 30/69/128 
f 52/72/129 51/70/130 30/69/131 32/71/132 
f 53/74/133 52/72/134 32/71/135 34/73/136 
f 54/76/137 53/74/138 34/73/139 36/75/140 
f 37/41/141 54/76/142 36/75/143 1/42/144 
f 38/44/145 55/77/146 37/41/147 
f 39/46/148 55/77/149 38/44/150 
f 40/48/151 55/77/152 39/46/153 
f 41/50/154 55/77/155 40/48/156 
f 42/52/157 55/77/158 41/50/159 
f 43/54/160 55/77/161 42/52/162 
f 44/56/163 55/77/164 43/54/165 
f 45/58/166 55/77/167 44/56/168 
f 46/60/169 55/77/170 45/58/171 
f 47/62/172 55/77/173 46/60/174 
f 48/64/175 55/77/176 47/62/177 
f 49/66/178 55/77/179 48/64/180 
f 50/68/181 55/77/182 49/66/183 
f 51/70/184 55/77/185 50/68/186 
f 52/72/187 55/77/188 51/70/189 
f 53/74/190 55/77/191 52/72/192 
f 54/76/193 55/77/194 53/74/195 
f 37/41/196 55/77/197 54/76/198 
# 36 polygons - 18 triangles

