# 3ds Max Wavefront OBJ Exporter v0.97b - (c)2007 guruware
# File Created: 07.07.2016 13:03:22

#
# object default
#

v  -0.2134 0.7149 0.9518
v  -0.5652 0.7149 0.8048
v  -0.6191 0.6331 1.0723
v  -0.2150 0.6331 1.2194
v  0.1611 0.7149 0.9518
v  0.2150 0.6331 1.2194
v  0.2085 1.2662 1.1825
v  0.1554 1.2662 0.9150
v  0.1497 1.8175 0.8782
v  0.2020 1.8993 1.1457
v  -0.2020 1.8993 1.1457
v  -0.2021 1.8175 0.8782
v  -0.5817 1.8993 1.0075
v  -0.5326 1.8175 0.7400
v  -0.6004 1.2662 1.0398
v  -0.5489 1.2662 0.7724
v  0.9783 0.7086 -0.3561
v  1.0441 0.7086 0.0169
v  1.2381 0.6331 0.0001
v  1.1634 0.6331 -0.4234
v  0.9484 0.6331 -0.7958
v  0.7889 0.7086 -0.6840
v  0.9198 1.2662 -0.7718
v  0.7637 1.2662 -0.6629
v  0.7385 1.8238 -0.6417
v  0.8911 1.8993 -0.7477
v  0.9164 1.8238 -0.3335
v  1.0931 1.8993 -0.3978
v  1.1633 1.8993 0.0001
v  0.9782 1.8238 0.0169
v  1.2007 1.2662 0.0001
v  1.0111 1.2662 0.0169
v  -0.9513 0.6662 -0.3500
v  -0.7553 0.6662 -0.6896
v  -0.9485 0.6331 -0.7958
v  -1.1635 0.6331 -0.4234
v  -1.2381 0.6331 0.0001
v  -1.0194 0.6662 0.0361
v  -1.2007 1.2662 0.0001
v  -0.9853 1.2434 0.0361
v  -0.9512 1.8207 0.0361
v  -1.1633 1.8993 0.0001
v  -0.8872 1.8207 -0.3267
v  -1.0932 1.8993 -0.3978
v  -0.8912 1.8993 -0.7477
v  -0.7030 1.8207 -0.6457
v  -0.9198 1.2662 -0.7718
v  -0.7292 1.2434 -0.6676
v  1.2755 0.0000 0.0001
v  1.1986 0.0000 -0.4362
v  0.9771 0.0000 -0.8198
v  0.6377 0.0000 -1.1047
v  0.6190 0.6331 -1.0722
v  0.2215 0.0000 -1.2562
v  0.2150 0.6331 -1.2193
v  -0.2215 0.0000 -1.2562
v  -0.2150 0.6331 -1.2193
v  -0.6378 0.0000 -1.1047
v  -0.6191 0.6331 -1.0722
v  -0.9771 0.0000 -0.8198
v  -1.1986 0.0000 -0.4362
v  -1.2755 0.0000 0.0001
v  -1.1986 0.0000 0.4363
v  -1.1635 0.6331 0.4235
v  -0.9771 0.0000 0.8199
v  -0.9485 0.6331 0.7959
v  -0.6378 0.0000 1.1047
v  -0.2215 0.0000 1.2562
v  0.2215 0.0000 1.2562
v  0.6377 0.0000 1.1047
v  0.6190 0.6331 1.0723
v  0.9771 0.0000 0.8199
v  0.9484 0.6331 0.7959
v  1.1986 0.0000 0.4363
v  1.1634 0.6331 0.4235
v  0.9474 1.2662 -0.3448
v  0.6003 1.2662 -1.0398
v  0.2085 1.2662 -1.1825
v  -0.2085 1.2662 -1.1825
v  -0.6004 1.2662 -1.0398
v  -0.9193 1.2434 -0.3384
v  -1.1283 1.2662 0.4107
v  -0.9198 1.2662 0.7719
v  -0.2077 1.2662 0.9150
v  0.6003 1.2662 1.0398
v  0.9198 1.2662 0.7719
v  1.1283 1.2662 0.4107
v  0.5816 1.8993 -1.0074
v  0.2020 1.8993 -1.1456
v  -0.2020 1.8993 -1.1456
v  -0.5817 1.8993 -1.0074
v  -1.0932 1.8993 0.3979
v  -0.8912 1.8993 0.7478
v  0.5816 1.8993 1.0075
v  0.8911 1.8993 0.7478
v  1.0931 1.8993 0.3979
v  1.0756 2.2158 -0.3914
v  1.1446 2.2158 0.0001
v  0.8768 2.2158 -0.7357
v  0.5723 2.2158 -0.9912
v  0.1987 2.2158 -1.1272
v  -0.1988 2.2158 -1.1272
v  -0.5723 2.2158 -0.9912
v  -0.8769 2.2158 -0.7357
v  -1.0756 2.2158 -0.3914
v  -1.1446 2.2158 0.0001
v  -1.0756 2.2158 0.3915
v  -0.8769 2.2158 0.7358
v  -0.5723 2.2158 0.9913
v  -0.1988 2.2158 1.1273
v  0.1987 2.2158 1.1273
v  0.5723 2.2158 0.9913
v  0.8768 2.2158 0.7358
v  1.0756 2.2158 0.3915
# 114 vertices

vn -0.1056 0.9511 0.2901
vn -0.1056 0.9511 0.2901
vn -0.1056 0.9511 0.2901
vn -0.1127 0.9563 0.2697
vn 0.0000 0.9563 0.2923
vn 0.0000 0.9563 0.2923
vn 0.0000 0.9563 0.2923
vn 0.0000 0.9563 0.2923
vn -0.9809 0.0029 0.1947
vn -0.9809 0.0029 0.1947
vn -0.9809 0.0029 0.1947
vn -0.9802 0.0015 0.1979
vn -0.9815 0.0011 0.1916
vn -0.9815 0.0011 0.1916
vn -0.9815 0.0011 0.1916
vn -0.9809 0.0029 0.1947
vn 0.0000 -0.9563 0.2924
vn 0.0000 -0.9563 0.2924
vn 0.0000 -0.9563 0.2924
vn 0.0000 -0.9563 0.2924
vn -0.1135 -0.9557 0.2714
vn -0.1135 -0.9557 0.2714
vn -0.1135 -0.9557 0.2714
vn -0.1059 -0.9509 0.2908
vn 0.9818 -0.0179 0.1890
vn 0.9818 -0.0179 0.1890
vn 0.9818 -0.0179 0.1890
vn 0.9823 -0.0195 0.1863
vn 0.9812 -0.0192 0.1919
vn 0.9812 -0.0192 0.1919
vn 0.9812 -0.0192 0.1919
vn 0.9818 -0.0179 0.1890
vn 0.3572 0.9319 -0.0630
vn 0.3572 0.9319 -0.0630
vn 0.3572 0.9319 -0.0630
vn 0.3572 0.9319 -0.0630
vn 0.3140 0.9319 -0.1814
vn 0.3140 0.9319 -0.1814
vn 0.3140 0.9319 -0.1814
vn 0.3142 0.9319 -0.1814
vn 0.5721 -0.0052 0.8201
vn 0.5721 -0.0052 0.8201
vn 0.5721 -0.0052 0.8201
vn 0.5723 -0.0052 0.8200
vn 0.5722 -0.0053 0.8201
vn 0.5722 -0.0053 0.8201
vn 0.5722 -0.0053 0.8201
vn 0.5721 -0.0053 0.8201
vn 0.3270 -0.9260 -0.1888
vn 0.3270 -0.9260 -0.1888
vn 0.3270 -0.9260 -0.1888
vn 0.3270 -0.9260 -0.1888
vn 0.3718 -0.9260 -0.0656
vn 0.3718 -0.9260 -0.0656
vn 0.3718 -0.9260 -0.0656
vn 0.3718 -0.9260 -0.0656
vn -0.0883 -0.0052 -0.9961
vn -0.0883 -0.0052 -0.9961
vn -0.0883 -0.0052 -0.9961
vn -0.0883 -0.0052 -0.9961
vn -0.0883 -0.0052 -0.9961
vn -0.0883 -0.0052 -0.9961
vn -0.0883 -0.0052 -0.9961
vn -0.0883 -0.0052 -0.9961
vn -0.1286 0.9889 -0.0742
vn -0.1286 0.9889 -0.0742
vn -0.1286 0.9889 -0.0742
vn -0.1286 0.9889 -0.0742
vn -0.1455 0.9890 -0.0257
vn -0.1455 0.9890 -0.0257
vn -0.1455 0.9890 -0.0257
vn -0.1454 0.9890 -0.0256
vn 0.1638 -0.0097 -0.9864
vn 0.1638 -0.0097 -0.9864
vn 0.1638 -0.0097 -0.9864
vn 0.1638 -0.0097 -0.9864
vn 0.1638 -0.0097 -0.9864
vn 0.1638 -0.0097 -0.9864
vn 0.1638 -0.0097 -0.9864
vn 0.1638 -0.0097 -0.9864
vn -0.3379 -0.9393 -0.0595
vn -0.3379 -0.9393 -0.0595
vn -0.3379 -0.9393 -0.0595
vn -0.3380 -0.9393 -0.0596
vn -0.2986 -0.9387 -0.1724
vn -0.2986 -0.9387 -0.1724
vn -0.2986 -0.9387 -0.1724
vn -0.2986 -0.9387 -0.1724
vn -0.4807 -0.0114 0.8768
vn -0.4807 -0.0114 0.8768
vn -0.4807 -0.0114 0.8768
vn -0.4802 -0.0117 0.8771
vn -0.4802 -0.0115 0.8771
vn -0.4802 -0.0115 0.8771
vn -0.4802 -0.0115 0.8771
vn -0.4807 -0.0117 0.8768
vn 0.9983 0.0590 -0.0000
vn 0.9380 0.0590 -0.3414
vn 0.9380 0.0590 -0.3415
vn 0.9966 0.0589 0.0581
vn 0.9380 0.0590 -0.3414
vn 0.7647 0.0590 -0.6417
vn 0.7261 0.0589 -0.6851
vn 0.9380 0.0590 -0.3415
vn 0.7647 0.0590 -0.6417
vn 0.4991 0.0590 -0.8645
vn 0.4992 0.0590 -0.8645
vn 0.7261 0.0589 -0.6851
vn 0.4991 0.0590 -0.8645
vn 0.1734 0.0589 -0.9831
vn 0.1734 0.0590 -0.9831
vn 0.4992 0.0590 -0.8645
vn 0.1734 0.0589 -0.9831
vn -0.1733 0.0589 -0.9831
vn -0.1734 0.0590 -0.9831
vn 0.1734 0.0590 -0.9831
vn -0.1733 0.0589 -0.9831
vn -0.4992 0.0590 -0.8645
vn -0.4992 0.0590 -0.8645
vn -0.1734 0.0590 -0.9831
vn -0.4992 0.0590 -0.8645
vn -0.7647 0.0589 -0.6417
vn -0.7261 0.0588 -0.6851
vn -0.4992 0.0590 -0.8645
vn -0.7647 0.0589 -0.6417
vn -0.9381 0.0589 -0.3414
vn -0.9381 0.0589 -0.3414
vn -0.7261 0.0588 -0.6851
vn -0.9381 0.0589 -0.3414
vn -0.9983 0.0590 -0.0000
vn -0.9966 0.0589 0.0580
vn -0.9381 0.0589 -0.3414
vn -0.9983 0.0590 -0.0000
vn -0.9381 0.0589 0.3414
vn -0.9381 0.0590 0.3414
vn -0.9966 0.0589 0.0580
vn -0.9381 0.0589 0.3414
vn -0.7648 0.0589 0.6416
vn -0.7647 0.0590 0.6416
vn -0.9381 0.0590 0.3414
vn -0.7648 0.0589 0.6416
vn -0.4992 0.0590 0.8645
vn -0.5486 0.0589 0.8340
vn -0.7647 0.0590 0.6416
vn -0.4992 0.0590 0.8645
vn -0.1733 0.0589 0.9831
vn -0.1734 0.0589 0.9831
vn -0.5486 0.0589 0.8340
vn -0.1733 0.0589 0.9831
vn 0.1734 0.0589 0.9831
vn 0.2303 0.0589 0.9713
vn -0.1734 0.0589 0.9831
vn 0.1734 0.0589 0.9831
vn 0.4992 0.0590 0.8645
vn 0.4992 0.0590 0.8645
vn 0.2303 0.0589 0.9713
vn 0.4992 0.0590 0.8645
vn 0.7647 0.0590 0.6417
vn 0.7647 0.0590 0.6417
vn 0.4992 0.0590 0.8645
vn 0.7647 0.0590 0.6417
vn 0.9381 0.0590 0.3414
vn 0.9380 0.0590 0.3415
vn 0.7647 0.0590 0.6417
vn 0.9381 0.0590 0.3414
vn 0.9983 0.0590 -0.0000
vn 0.9966 0.0589 0.0581
vn 0.9380 0.0590 0.3415
vn 0.9831 0.0582 -0.1734
vn 0.9380 0.0590 -0.3415
vn 0.9381 0.0590 -0.3414
vn 0.9832 0.0580 -0.1732
vn 0.9380 0.0590 -0.3415
vn 0.8645 0.0580 -0.4993
vn 0.8645 0.0580 -0.4992
vn 0.9381 0.0590 -0.3414
vn 0.7261 0.0589 -0.6851
vn 0.4992 0.0590 -0.8645
vn 0.4991 0.0590 -0.8645
vn 0.6416 0.0581 -0.7648
vn 0.4992 0.0590 -0.8645
vn 0.1734 0.0590 -0.9831
vn 0.1734 0.0590 -0.9831
vn 0.4991 0.0590 -0.8645
vn 0.1734 0.0590 -0.9831
vn -0.1734 0.0590 -0.9831
vn -0.1733 0.0590 -0.9831
vn 0.1734 0.0590 -0.9831
vn -0.1734 0.0590 -0.9831
vn -0.4992 0.0590 -0.8645
vn -0.4991 0.0590 -0.8645
vn -0.1733 0.0590 -0.9831
vn -0.4992 0.0590 -0.8645
vn -0.7261 0.0588 -0.6851
vn -0.6417 0.0581 -0.7648
vn -0.4991 0.0590 -0.8645
vn -0.8646 0.0581 -0.4990
vn -0.9381 0.0589 -0.3414
vn -0.9381 0.0590 -0.3414
vn -0.8645 0.0581 -0.4992
vn -0.9381 0.0589 -0.3414
vn -0.9831 0.0580 -0.1734
vn -0.9832 0.0581 -0.1733
vn -0.9381 0.0590 -0.3414
vn -0.9966 0.0589 0.0580
vn -0.9381 0.0590 0.3414
vn -0.9381 0.0590 0.3414
vn -0.9831 0.0581 0.1733
vn -0.9381 0.0590 0.3414
vn -0.7647 0.0590 0.6416
vn -0.7647 0.0590 0.6417
vn -0.9381 0.0590 0.3414
vn -0.7647 0.0590 0.6416
vn -0.5486 0.0589 0.8340
vn -0.6417 0.0581 0.7648
vn -0.7647 0.0590 0.6417
vn -0.3847 0.0655 0.9207
vn -0.1958 0.0673 0.9783
vn -0.1962 0.0673 0.9783
vn -0.3848 0.0654 0.9207
vn -0.1958 0.0673 0.9783
vn 0.0000 0.0666 0.9978
vn 0.0000 0.0666 0.9978
vn -0.1962 0.0673 0.9783
vn 0.2303 0.0589 0.9713
vn 0.4992 0.0590 0.8645
vn 0.4991 0.0590 0.8646
vn 0.3415 0.0581 0.9381
vn 0.4992 0.0590 0.8645
vn 0.7647 0.0590 0.6417
vn 0.7647 0.0590 0.6417
vn 0.4991 0.0590 0.8646
vn 0.7647 0.0590 0.6417
vn 0.9380 0.0590 0.3415
vn 0.9381 0.0590 0.3414
vn 0.7647 0.0590 0.6417
vn 0.9380 0.0590 0.3415
vn 0.9966 0.0589 0.0581
vn 0.9831 0.0581 0.1734
vn 0.9381 0.0590 0.3414
vn 0.9832 0.0580 -0.1732
vn 0.9381 0.0590 -0.3414
vn 0.9381 0.0590 -0.3414
vn 0.9832 0.0581 -0.1733
vn 0.9381 0.0590 -0.3414
vn 0.8645 0.0580 -0.4992
vn 0.8646 0.0581 -0.4991
vn 0.9381 0.0590 -0.3414
vn 0.6416 0.0581 -0.7648
vn 0.4991 0.0590 -0.8645
vn 0.4991 0.0589 -0.8645
vn 0.7254 0.0588 -0.6858
vn 0.4991 0.0590 -0.8645
vn 0.1734 0.0590 -0.9831
vn 0.1734 0.0589 -0.9831
vn 0.4991 0.0589 -0.8645
vn 0.1734 0.0590 -0.9831
vn -0.1733 0.0590 -0.9831
vn -0.1733 0.0589 -0.9831
vn 0.1734 0.0589 -0.9831
vn -0.1733 0.0590 -0.9831
vn -0.4991 0.0590 -0.8645
vn -0.4991 0.0590 -0.8645
vn -0.1733 0.0589 -0.9831
vn -0.4991 0.0590 -0.8645
vn -0.6417 0.0581 -0.7648
vn -0.7254 0.0588 -0.6858
vn -0.4991 0.0590 -0.8645
vn -0.8645 0.0581 -0.4992
vn -0.9381 0.0590 -0.3414
vn -0.9380 0.0590 -0.3415
vn -0.8645 0.0582 -0.4992
vn -0.9381 0.0590 -0.3414
vn -0.9832 0.0581 -0.1733
vn -0.9831 0.0581 -0.1734
vn -0.9380 0.0590 -0.3415
vn -0.9831 0.0581 0.1733
vn -0.9381 0.0590 0.3414
vn -0.9381 0.0590 0.3413
vn -0.9965 0.0589 0.0591
vn -0.9381 0.0590 0.3414
vn -0.7647 0.0590 0.6417
vn -0.7647 0.0589 0.6417
vn -0.9381 0.0590 0.3413
vn -0.7647 0.0590 0.6417
vn -0.6417 0.0581 0.7648
vn -0.5495 0.0589 0.8334
vn -0.7647 0.0589 0.6417
vn -0.3848 0.0654 0.9207
vn -0.1962 0.0673 0.9783
vn -0.1966 0.0673 0.9782
vn -0.3850 0.0655 0.9206
vn -0.1962 0.0673 0.9783
vn 0.0000 0.0666 0.9978
vn 0.0000 0.0666 0.9978
vn -0.1966 0.0673 0.9782
vn 0.3415 0.0581 0.9381
vn 0.4991 0.0590 0.8646
vn 0.4991 0.0590 0.8645
vn 0.2313 0.0589 0.9711
vn 0.4991 0.0590 0.8646
vn 0.7647 0.0590 0.6417
vn 0.7647 0.0590 0.6417
vn 0.4991 0.0590 0.8645
vn 0.7647 0.0590 0.6417
vn 0.9381 0.0590 0.3414
vn 0.9381 0.0589 0.3414
vn 0.7647 0.0590 0.6417
vn 0.9381 0.0590 0.3414
vn 0.9831 0.0581 0.1734
vn 0.9965 0.0588 0.0592
vn 0.9381 0.0589 0.3414
vn 0.9380 0.0588 -0.3415
vn 0.9381 0.0588 -0.3414
vn 0.9983 0.0589 0.0001
vn 0.9965 0.0588 0.0592
vn 0.7254 0.0588 -0.6858
vn 0.7647 0.0589 -0.6417
vn 0.9381 0.0588 -0.3414
vn 0.9380 0.0588 -0.3415
vn 0.4991 0.0589 -0.8645
vn 0.4992 0.0589 -0.8645
vn 0.7647 0.0589 -0.6417
vn 0.7254 0.0588 -0.6858
vn 0.1734 0.0589 -0.9831
vn 0.1734 0.0590 -0.9831
vn 0.4992 0.0589 -0.8645
vn 0.4991 0.0589 -0.8645
vn -0.1733 0.0589 -0.9831
vn -0.1734 0.0589 -0.9831
vn 0.1734 0.0590 -0.9831
vn 0.1734 0.0589 -0.9831
vn -0.4991 0.0590 -0.8645
vn -0.4991 0.0590 -0.8646
vn -0.1734 0.0589 -0.9831
vn -0.1733 0.0589 -0.9831
vn -0.7254 0.0588 -0.6858
vn -0.7647 0.0589 -0.6416
vn -0.4991 0.0590 -0.8646
vn -0.4991 0.0590 -0.8645
vn -0.9381 0.0590 -0.3414
vn -0.9381 0.0590 -0.3413
vn -0.7647 0.0589 -0.6416
vn -0.7254 0.0588 -0.6858
vn -0.9965 0.0589 0.0591
vn -0.9983 0.0590 -0.0000
vn -0.9381 0.0590 -0.3413
vn -0.9381 0.0590 -0.3414
vn -0.9381 0.0590 0.3413
vn -0.9381 0.0590 0.3413
vn -0.9983 0.0590 -0.0000
vn -0.9965 0.0589 0.0591
vn -0.7647 0.0589 0.6417
vn -0.7647 0.0589 0.6417
vn -0.9381 0.0590 0.3413
vn -0.9381 0.0590 0.3413
vn -0.5495 0.0589 0.8334
vn -0.4991 0.0590 0.8645
vn -0.7647 0.0589 0.6417
vn -0.7647 0.0589 0.6417
vn -0.1733 0.0589 0.9831
vn -0.1734 0.0589 0.9831
vn -0.4991 0.0590 0.8645
vn -0.5495 0.0589 0.8334
vn 0.2313 0.0589 0.9711
vn 0.1734 0.0590 0.9831
vn -0.1734 0.0589 0.9831
vn -0.1733 0.0589 0.9831
vn 0.4991 0.0590 0.8645
vn 0.4992 0.0589 0.8645
vn 0.1734 0.0590 0.9831
vn 0.2313 0.0589 0.9711
vn 0.7647 0.0590 0.6417
vn 0.7647 0.0589 0.6417
vn 0.4992 0.0589 0.8645
vn 0.4991 0.0590 0.8645
vn 0.9381 0.0589 0.3414
vn 0.9381 0.0588 0.3414
vn 0.7647 0.0589 0.6417
vn 0.7647 0.0590 0.6417
vn 0.9965 0.0588 0.0592
vn 0.9983 0.0589 0.0001
vn 0.9381 0.0588 0.3414
vn 0.9381 0.0589 0.3414
# 384 vertex normals

vt 0.5553 0.0906 0.0000
vt 0.5085 0.0906 0.0000
vt 0.6020 0.0906 0.0000
vt 0.6020 0.1571 0.0000
vt 0.6020 0.2236 0.0000
vt 0.5553 0.2236 0.0000
vt 0.5085 0.2236 0.0000
vt 0.5085 0.1571 0.0000
vt 0.8358 0.0906 0.0000
vt 0.7890 0.0906 0.0000
vt 0.8825 0.0906 0.0000
vt 0.8825 0.1571 0.0000
vt 0.8825 0.2236 0.0000
vt 0.8358 0.2236 0.0000
vt 0.7890 0.2236 0.0000
vt 0.7890 0.1571 0.0000
vt 0.3215 0.0906 0.0000
vt 0.2748 0.0906 0.0000
vt 0.3683 0.0906 0.0000
vt 0.3683 0.1571 0.0000
vt 0.3683 0.2236 0.0000
vt 0.3215 0.2236 0.0000
vt 0.2748 0.2236 0.0000
vt 0.2748 0.1571 0.0000
vt 0.7890 0.0242 0.0000
vt 0.8358 0.0242 0.0000
vt 0.8825 0.0242 0.0000
vt 0.9293 0.0242 0.0000
vt 0.9293 0.0906 0.0000
vt 0.9760 0.0242 0.0000
vt 0.9760 0.0906 0.0000
vt 0.1345 0.0906 0.0000
vt 0.1345 0.0242 0.0000
vt 0.1813 0.0242 0.0000
vt 0.1813 0.0906 0.0000
vt 0.2280 0.0242 0.0000
vt 0.2280 0.0906 0.0000
vt 0.2748 0.0242 0.0000
vt 0.3215 0.0242 0.0000
vt 0.3683 0.0242 0.0000
vt 0.4150 0.0242 0.0000
vt 0.4150 0.0906 0.0000
vt 0.4618 0.0242 0.0000
vt 0.4618 0.0906 0.0000
vt 0.5085 0.0242 0.0000
vt 0.5553 0.0242 0.0000
vt 0.6020 0.0242 0.0000
vt 0.6488 0.0242 0.0000
vt 0.6488 0.0906 0.0000
vt 0.6955 0.0242 0.0000
vt 0.6955 0.0906 0.0000
vt 0.7423 0.0242 0.0000
vt 0.7423 0.0906 0.0000
vt 0.8525 0.7975 0.0000
vt 0.8516 0.7328 0.0000
vt 0.8951 0.7328 0.0000
vt 0.8951 0.7975 0.0000
vt 0.9385 0.7328 0.0000
vt 0.9376 0.7975 0.0000
vt 0.9293 0.1571 0.0000
vt 0.9760 0.1571 0.0000
vt 0.1345 0.1571 0.0000
vt 0.1813 0.1571 0.0000
vt 0.2280 0.1571 0.0000
vt 0.8550 0.8986 0.0000
vt 0.8541 0.8316 0.0000
vt 0.8991 0.8316 0.0000
vt 0.8991 0.8986 0.0000
vt 0.9440 0.8316 0.0000
vt 0.9431 0.8986 0.0000
vt 0.4150 0.1571 0.0000
vt 0.4618 0.1571 0.0000
vt 0.9013 0.8358 0.0000
vt 0.8585 0.8364 0.0000
vt 0.8574 0.7724 0.0000
vt 0.9016 0.7718 0.0000
vt 0.9449 0.7724 0.0000
vt 0.9434 0.8364 0.0000
vt 0.6488 0.1571 0.0000
vt 0.6955 0.1571 0.0000
vt 0.7423 0.1571 0.0000
vt 0.8534 0.8622 0.0000
vt 0.8951 0.8622 0.0000
vt 0.9367 0.8622 0.0000
vt 0.9293 0.2236 0.0000
vt 0.9760 0.2236 0.0000
vt 0.1345 0.2236 0.0000
vt 0.1813 0.2236 0.0000
vt 0.2280 0.2236 0.0000
vt 0.8559 0.9656 0.0000
vt 0.8991 0.9656 0.0000
vt 0.9422 0.9656 0.0000
vt 0.4150 0.2236 0.0000
vt 0.4618 0.2236 0.0000
vt 0.9011 0.8998 0.0000
vt 0.8596 0.9004 0.0000
vt 0.9419 0.9004 0.0000
vt 0.6488 0.2236 0.0000
vt 0.6955 0.2236 0.0000
vt 0.7423 0.2236 0.0000
vt 0.8358 0.2568 0.0000
vt 0.7890 0.2568 0.0000
vt 0.8825 0.2568 0.0000
vt 0.9293 0.2568 0.0000
vt 0.9760 0.2568 0.0000
vt 0.1813 0.2568 0.0000
vt 0.1345 0.2568 0.0000
vt 0.2280 0.2568 0.0000
vt 0.2748 0.2568 0.0000
vt 0.3215 0.2568 0.0000
vt 0.3683 0.2568 0.0000
vt 0.4150 0.2568 0.0000
vt 0.4618 0.2568 0.0000
vt 0.5085 0.2568 0.0000
vt 0.5553 0.2568 0.0000
vt 0.6020 0.2568 0.0000
vt 0.6488 0.2568 0.0000
vt 0.6955 0.2568 0.0000
vt 0.7423 0.2568 0.0000
# 119 texture coords

g default
s off
f 3/2/1 4/1/2 1/1/3 2/2/4 
f 4/1/5 6/3/6 5/3/7 1/1/8 
f 7/4/9 8/4/10 5/3/11 6/3/12 
f 7/4/13 10/5/14 9/5/15 8/4/16 
f 11/6/17 12/6/18 9/5/19 10/5/20 
f 13/7/21 14/7/22 12/6/23 11/6/24 
f 15/8/25 16/8/26 14/7/27 13/7/28 
f 15/8/29 3/2/30 2/2/31 16/8/32 
f 19/10/33 20/9/34 17/9/35 18/10/36 
f 21/11/37 22/11/38 17/9/39 20/9/40 
f 23/12/41 24/12/42 22/11/43 21/11/44 
f 23/12/45 26/13/46 25/13/47 24/12/48 
f 26/13/49 28/14/50 27/14/51 25/13/52 
f 29/15/53 30/15/54 27/14/55 28/14/56 
f 31/16/57 32/16/58 30/15/59 29/15/60 
f 31/16/61 19/10/62 18/10/63 32/16/64 
f 35/18/65 36/17/66 33/17/67 34/18/68 
f 37/19/69 38/19/70 33/17/71 36/17/72 
f 39/20/73 40/20/74 38/19/75 37/19/76 
f 39/20/77 42/21/78 41/21/79 40/20/80 
f 42/21/81 44/22/82 43/22/83 41/21/84 
f 45/23/85 46/23/86 43/22/87 44/22/88 
f 47/24/89 48/24/90 46/23/91 45/23/92 
f 47/24/93 35/18/94 34/18/95 48/24/96 
f 49/25/97 50/26/98 20/9/99 19/10/100 
f 50/26/101 51/27/102 21/11/103 20/9/104 
f 51/27/105 52/28/106 53/29/107 21/11/108 
f 52/28/109 54/30/110 55/31/111 53/29/112 
f 54/33/113 56/34/114 57/35/115 55/32/116 
f 56/34/117 58/36/118 59/37/119 57/35/120 
f 58/36/121 60/38/122 35/18/123 59/37/124 
f 60/38/125 61/39/126 36/17/127 35/18/128 
f 61/39/129 62/40/130 37/19/131 36/17/132 
f 62/40/133 63/41/134 64/42/135 37/19/136 
f 63/41/137 65/43/138 66/44/139 64/42/140 
f 65/43/141 67/45/142 3/2/143 66/44/144 
f 67/45/145 68/46/146 4/1/147 3/2/148 
f 68/46/149 69/47/150 6/3/151 4/1/152 
f 69/47/153 70/48/154 71/49/155 6/3/156 
f 70/48/157 72/50/158 73/51/159 71/49/160 
f 72/50/161 74/52/162 75/53/163 73/51/164 
f 74/52/165 49/25/166 19/10/167 75/53/168 
f 18/55/169 17/56/170 76/57/171 32/54/172 
f 17/56/173 22/58/174 24/59/175 76/57/176 
f 21/11/177 53/29/178 77/60/179 23/12/180 
f 53/29/181 55/31/182 78/61/183 77/60/184 
f 55/32/185 57/35/186 79/63/187 78/62/188 
f 57/35/189 59/37/190 80/64/191 79/63/192 
f 59/37/193 35/18/194 47/24/195 80/64/196 
f 34/66/197 33/67/198 81/68/199 48/65/200 
f 33/67/201 38/69/202 40/70/203 81/68/204 
f 37/19/205 64/42/206 82/71/207 39/20/208 
f 64/42/209 66/44/210 83/72/211 82/71/212 
f 66/44/213 3/2/214 15/8/215 83/72/216 
f 2/75/217 1/76/218 84/73/219 16/74/220 
f 1/76/221 5/77/222 8/78/223 84/73/224 
f 6/3/225 71/49/226 85/79/227 7/4/228 
f 71/49/229 73/51/230 86/80/231 85/79/232 
f 73/51/233 75/53/234 87/81/235 86/80/236 
f 75/53/237 19/10/238 31/16/239 87/81/240 
f 32/54/241 76/57/242 27/83/243 30/82/244 
f 76/57/245 24/59/246 25/84/247 27/83/248 
f 23/12/249 77/60/250 88/85/251 26/13/252 
f 77/60/253 78/61/254 89/86/255 88/85/256 
f 78/62/257 79/63/258 90/88/259 89/87/260 
f 79/63/261 80/64/262 91/89/263 90/88/264 
f 80/64/265 47/24/266 45/23/267 91/89/268 
f 48/65/269 81/68/270 43/91/271 46/90/272 
f 81/68/273 40/70/274 41/92/275 43/91/276 
f 39/20/277 82/71/278 92/93/279 42/21/280 
f 82/71/281 83/72/282 93/94/283 92/93/284 
f 83/72/285 15/8/286 13/7/287 93/94/288 
f 16/74/289 84/73/290 12/95/291 14/96/292 
f 84/73/293 8/78/294 9/97/295 12/95/296 
f 7/4/297 85/79/298 94/98/299 10/5/300 
f 85/79/301 86/80/302 95/99/303 94/98/304 
f 86/80/305 87/81/306 96/100/307 95/99/308 
f 87/81/309 31/16/310 29/15/311 96/100/312 
f 28/14/313 97/101/314 98/102/315 29/15/316 
f 26/13/317 99/103/318 97/101/319 28/14/320 
f 88/85/321 100/104/322 99/103/323 26/13/324 
f 89/86/325 101/105/326 100/104/327 88/85/328 
f 90/88/329 102/106/330 101/107/331 89/87/332 
f 91/89/333 103/108/334 102/106/335 90/88/336 
f 45/23/337 104/109/338 103/108/339 91/89/340 
f 44/22/341 105/110/342 104/109/343 45/23/344 
f 42/21/345 106/111/346 105/110/347 44/22/348 
f 92/93/349 107/112/350 106/111/351 42/21/352 
f 93/94/353 108/113/354 107/112/355 92/93/356 
f 13/7/357 109/114/358 108/113/359 93/94/360 
f 11/6/361 110/115/362 109/114/363 13/7/364 
f 10/5/365 111/116/366 110/115/367 11/6/368 
f 94/98/369 112/117/370 111/116/371 10/5/372 
f 95/99/373 113/118/374 112/117/375 94/98/376 
f 96/100/377 114/119/378 113/118/379 95/99/380 
f 29/15/381 98/102/382 114/119/383 96/100/384 
# 96 polygons

