# 3ds Max Wavefront OBJ Exporter v0.97b - (c)2007 guruware
# File Created: 07.07.2016 13:06:11

#
# object t3
#

v  0.9526 4.4310 -0.3462
v  0.9174 5.0641 -0.3335
v  0.9763 5.0641 0.0005
v  1.0137 4.4310 0.0005
v  0.7790 4.4259 -0.6497
v  0.7501 5.0651 -0.6255
v  0.4010 4.4923 -0.6683
v  0.3841 5.0651 -0.6390
v  0.6191 5.0651 -0.4418
v  0.6450 4.4923 -0.4636
v  0.1017 4.4923 -0.7772
v  0.0959 5.0651 -0.7439
v  -0.1761 4.4310 -0.9979
v  -0.1696 5.0641 -0.9611
v  0.1661 5.0651 -0.9626
v  0.1726 4.4259 -0.9998
v  -0.5069 4.4310 -0.8775
v  -0.4882 5.0641 -0.8451
v  -0.7766 4.4310 -0.6512
v  -0.7479 5.0641 -0.6271
v  -0.8050 4.5017 -0.2801
v  -0.7738 5.0641 -0.2688
v  -0.6232 5.0641 -0.5296
v  -0.6486 4.5017 -0.5509
v  -0.8593 4.5017 0.0279
v  -0.8261 5.0641 0.0279
v  -0.9526 4.4310 0.3472
v  -0.9175 5.0641 0.3344
v  -0.9764 5.0641 0.0005
v  -1.0138 4.4310 0.0005
v  -0.7766 4.4310 0.6521
v  -0.7479 5.0641 0.6280
v  -0.4005 4.5112 0.7341
v  -0.3842 5.0641 0.7058
v  -0.6110 5.0641 0.5155
v  -0.6360 4.5112 0.5365
v  -0.1116 4.5112 0.8392
v  -0.1059 5.0641 0.8071
v  0.1760 4.4310 0.9988
v  0.1695 5.0641 0.9620
v  -0.1696 5.0641 0.9620
v  -0.1761 4.4310 0.9988
v  0.5068 4.4310 0.8784
v  0.4881 5.0641 0.8460
v  0.7765 4.4310 0.6521
v  0.7479 5.0641 0.6280
v  0.9526 4.4310 0.3472
v  0.9174 5.0641 0.3344
v  0.8823 5.6972 -0.3207
v  0.9389 5.6972 0.0005
v  0.7211 5.7043 -0.6012
v  0.3672 5.6378 -0.6097
v  0.5932 5.6378 -0.4201
v  0.0931 5.6314 -0.7095
v  -0.1631 5.6972 -0.9242
v  0.1630 5.6972 -0.9242
v  -0.4695 5.6972 -0.8127
v  -0.7193 5.6972 -0.6031
v  -0.7425 5.6264 -0.2574
v  -0.5977 5.6264 -0.5082
v  -0.7928 5.6264 0.0279
v  -0.8823 5.6972 0.3216
v  -0.9390 5.6972 0.0005
v  -0.7193 5.6972 0.6040
v  -0.3678 5.6169 0.6775
v  -0.5860 5.6169 0.4945
v  -0.1002 5.6169 0.7749
v  0.1630 5.6972 0.9251
v  -0.1631 5.6972 0.9251
v  0.4694 5.6972 0.8136
v  0.7192 5.6972 0.6040
v  0.8823 5.6972 0.3216
v  0.8472 6.3303 -0.3079
v  0.9015 6.3303 0.0005
v  0.6906 6.3303 -0.5790
v  0.4507 6.3303 -0.7803
v  0.4689 5.7043 -0.8128
v  0.1565 6.3303 -0.8874
v  -0.1566 6.3303 -0.8874
v  -0.4508 6.3303 -0.7803
v  -0.6906 6.3303 -0.5790
v  -0.8472 6.3303 -0.3079
v  -0.8823 5.6972 -0.3207
v  -0.9016 6.3303 0.0005
v  -0.8472 6.3303 0.3088
v  -0.6906 6.3303 0.5800
v  -0.4508 6.3303 0.7812
v  -0.4695 5.6972 0.8136
v  -0.1566 6.3303 0.8883
v  0.1565 6.3303 0.8883
v  0.4507 6.3303 0.7812
v  0.6906 6.3303 0.5800
v  0.8472 6.3303 0.3088
v  -0.5069 4.4310 0.8784
v  0.5067 4.4259 -0.8782
v  -0.9526 4.4310 -0.3462
v  1.0324 4.1144 0.0005
v  0.9701 4.1144 -0.3527
v  0.7921 4.1119 -0.6625
v  0.5161 4.1119 -0.8940
v  0.1776 4.1119 -1.0173
v  -0.1793 4.1144 -1.0163
v  -0.5162 4.1144 -0.8937
v  -0.7909 4.1144 -0.6632
v  -0.9702 4.1144 -0.3527
v  -1.0325 4.1144 0.0005
v  -0.9702 4.1144 0.3536
v  -0.7909 4.1144 0.6641
v  -0.5162 4.1144 0.8946
v  -0.1793 4.1144 1.0172
v  0.1793 4.1144 1.0172
v  0.5162 4.1144 0.8946
v  0.7909 4.1144 0.6641
v  0.9701 4.1144 0.3536
# 114 vertices

vn 0.9983 0.0590 -0.0000
vn 0.9983 0.0590 -0.0000
vn 0.9386 0.0590 -0.3399
vn 0.9386 0.0590 -0.3399
vn 0.9386 0.0590 -0.3399
vn 0.8020 0.0584 -0.5944
vn 0.8662 0.0581 -0.4963
vn 0.9386 0.0590 -0.3399
vn 0.6417 0.0581 -0.7648
vn 0.6417 0.0581 -0.7648
vn 0.4991 0.0590 -0.8645
vn 0.4991 0.0591 -0.8646
vn 0.4991 0.0591 -0.8646
vn 0.4991 0.0590 -0.8645
vn 0.3414 0.0581 -0.9381
vn 0.3414 0.0584 -0.9381
vn -0.1757 0.0590 -0.9827
vn -0.1757 0.0590 -0.9827
vn -0.0041 0.0585 -0.9983
vn 0.1127 0.0582 -0.9919
vn -0.1757 0.0590 -0.9827
vn -0.1757 0.0590 -0.9827
vn -0.4991 0.0590 -0.8645
vn -0.4991 0.0590 -0.8645
vn -0.4991 0.0590 -0.8645
vn -0.4991 0.0590 -0.8645
vn -0.7261 0.0589 -0.6851
vn -0.6417 0.0581 -0.7648
vn -0.8646 0.0581 -0.4992
vn -0.8646 0.0581 -0.4992
vn -0.9381 0.0590 -0.3414
vn -0.9381 0.0590 -0.3414
vn -0.9381 0.0590 -0.3414
vn -0.9381 0.0590 -0.3414
vn -0.9831 0.0581 -0.1734
vn -0.9831 0.0581 -0.1734
vn -0.9831 0.0581 0.1734
vn -0.9966 0.0589 0.0581
vn -0.9381 0.0590 0.3414
vn -0.9381 0.0590 0.3414
vn -0.9381 0.0590 0.3414
vn -0.9381 0.0590 0.3414
vn -0.8007 0.0589 0.5961
vn -0.8646 0.0581 0.4992
vn -0.6417 0.0581 0.7648
vn -0.6417 0.0581 0.7648
vn -0.4991 0.0590 0.8645
vn -0.4991 0.0590 0.8645
vn -0.4991 0.0590 0.8645
vn -0.4991 0.0590 0.8645
vn -0.3414 0.0581 0.9381
vn -0.3414 0.0581 0.9381
vn 0.0000 0.0581 0.9983
vn -0.1159 0.0589 0.9915
vn 0.1733 0.0590 0.9831
vn 0.1733 0.0590 0.9831
vn 0.1733 0.0590 0.9831
vn 0.1733 0.0590 0.9831
vn 0.4991 0.0590 0.8645
vn 0.4991 0.0590 0.8645
vn 0.4991 0.0590 0.8645
vn 0.4991 0.0590 0.8645
vn 0.7647 0.0590 0.6417
vn 0.7647 0.0590 0.6417
vn 0.7647 0.0590 0.6417
vn 0.7647 0.0590 0.6417
vn 0.9381 0.0590 0.3414
vn 0.9381 0.0590 0.3414
vn 0.9381 0.0590 0.3414
vn 0.9381 0.0590 0.3414
vn 0.9983 0.0590 -0.0000
vn 0.9983 0.0590 -0.0000
vn 0.9983 0.0590 -0.0000
vn 0.9983 0.0590 -0.0000
vn 0.9386 0.0590 -0.3399
vn 0.9386 0.0590 -0.3398
vn 0.8662 0.0581 -0.4963
vn 0.8027 0.0592 -0.5934
vn 0.9386 0.0590 -0.3398
vn 0.9386 0.0590 -0.3399
vn 0.6417 0.0581 -0.7648
vn 0.6417 0.0581 -0.7648
vn 0.4991 0.0591 -0.8646
vn 0.4997 0.0590 -0.8642
vn 0.4991 0.0591 -0.8646
vn 0.3414 0.0584 -0.9381
vn 0.3407 0.0582 -0.9384
vn 0.4997 0.0590 -0.8642
vn 0.1136 0.0599 -0.9917
vn -0.0041 0.0585 -0.9983
vn -0.1757 0.0590 -0.9827
vn -0.1737 0.0594 -0.9830
vn -0.1737 0.0594 -0.9830
vn -0.1757 0.0590 -0.9827
vn -0.4991 0.0590 -0.8645
vn -0.4991 0.0590 -0.8645
vn -0.4991 0.0590 -0.8645
vn -0.4991 0.0590 -0.8645
vn -0.6417 0.0581 -0.7648
vn -0.7254 0.0589 -0.6858
vn -0.8646 0.0581 -0.4992
vn -0.8646 0.0581 -0.4992
vn -0.9381 0.0590 -0.3414
vn -0.9381 0.0590 -0.3414
vn -0.9381 0.0590 -0.3414
vn -0.9381 0.0590 -0.3414
vn -0.9831 0.0581 -0.1734
vn -0.9831 0.0581 -0.1734
vn -0.9965 0.0589 0.0591
vn -0.9831 0.0581 0.1734
vn -0.9381 0.0590 0.3414
vn -0.9381 0.0590 0.3414
vn -0.9381 0.0590 0.3414
vn -0.9381 0.0590 0.3414
vn -0.8646 0.0581 0.4992
vn -0.8014 0.0589 0.5953
vn -0.6417 0.0581 0.7648
vn -0.6417 0.0581 0.7648
vn -0.4991 0.0590 0.8645
vn -0.4991 0.0590 0.8645
vn -0.4991 0.0590 0.8645
vn -0.4991 0.0590 0.8645
vn -0.3414 0.0581 0.9381
vn -0.3414 0.0581 0.9381
vn -0.1149 0.0589 0.9916
vn 0.0000 0.0581 0.9983
vn 0.1733 0.0590 0.9831
vn 0.1733 0.0590 0.9831
vn 0.1733 0.0590 0.9831
vn 0.1733 0.0590 0.9831
vn 0.4991 0.0590 0.8645
vn 0.4991 0.0590 0.8645
vn 0.4991 0.0590 0.8645
vn 0.4991 0.0590 0.8645
vn 0.7647 0.0590 0.6417
vn 0.7647 0.0590 0.6417
vn 0.7647 0.0590 0.6417
vn 0.7647 0.0590 0.6417
vn 0.9381 0.0590 0.3414
vn 0.9381 0.0590 0.3414
vn 0.9381 0.0590 0.3414
vn 0.9381 0.0590 0.3414
vn 0.9983 0.0590 -0.0000
vn 0.9983 0.0590 -0.0000
vn 0.9983 0.0590 -0.0000
vn 0.9386 0.0590 -0.3398
vn 0.9382 0.0596 -0.3409
vn 0.9983 0.0590 -0.0000
vn 0.8027 0.0592 -0.5934
vn 0.7644 0.0600 -0.6420
vn 0.9382 0.0596 -0.3409
vn 0.9386 0.0590 -0.3398
vn 0.8027 0.0592 -0.5934
vn 0.4975 0.0594 -0.8654
vn 0.4991 0.0592 -0.8645
vn 0.7644 0.0600 -0.6420
vn 0.1733 0.0590 -0.9831
vn 0.4991 0.0592 -0.8645
vn 0.4975 0.0594 -0.8654
vn 0.1136 0.0599 -0.9917
vn 0.1136 0.0599 -0.9917
vn -0.1737 0.0594 -0.9830
vn -0.1733 0.0590 -0.9831
vn 0.1733 0.0590 -0.9831
vn -0.1737 0.0594 -0.9830
vn -0.4991 0.0590 -0.8645
vn -0.4991 0.0590 -0.8645
vn -0.1733 0.0590 -0.9831
vn -0.4991 0.0590 -0.8645
vn -0.7254 0.0589 -0.6858
vn -0.7647 0.0590 -0.6417
vn -0.4991 0.0590 -0.8645
vn -0.7254 0.0589 -0.6858
vn -0.9381 0.0590 -0.3414
vn -0.9381 0.0590 -0.3414
vn -0.7647 0.0590 -0.6417
vn -0.9381 0.0590 -0.3414
vn -0.9965 0.0589 0.0591
vn -0.9983 0.0590 -0.0000
vn -0.9381 0.0590 -0.3414
vn -0.9965 0.0589 0.0591
vn -0.9381 0.0590 0.3414
vn -0.9381 0.0590 0.3414
vn -0.9983 0.0590 -0.0000
vn -0.9381 0.0590 0.3414
vn -0.8014 0.0589 0.5953
vn -0.7647 0.0590 0.6417
vn -0.9381 0.0590 0.3414
vn -0.8014 0.0589 0.5953
vn -0.4991 0.0590 0.8645
vn -0.4991 0.0590 0.8645
vn -0.7647 0.0590 0.6417
vn -0.4991 0.0590 0.8645
vn -0.1149 0.0589 0.9916
vn -0.1733 0.0590 0.9831
vn -0.4991 0.0590 0.8645
vn -0.1149 0.0589 0.9916
vn 0.1733 0.0590 0.9831
vn 0.1733 0.0590 0.9831
vn -0.1733 0.0590 0.9831
vn 0.1733 0.0590 0.9831
vn 0.4991 0.0590 0.8645
vn 0.4991 0.0590 0.8645
vn 0.1733 0.0590 0.9831
vn 0.4991 0.0590 0.8645
vn 0.7647 0.0590 0.6417
vn 0.7647 0.0590 0.6417
vn 0.4991 0.0590 0.8645
vn 0.7647 0.0590 0.6417
vn 0.9381 0.0590 0.3414
vn 0.9381 0.0590 0.3414
vn 0.7647 0.0590 0.6417
vn 0.9381 0.0590 0.3414
vn 0.9983 0.0590 -0.0000
vn 0.9983 0.0590 -0.0000
vn 0.9381 0.0590 0.3414
vn -0.2630 0.9125 0.3134
vn -0.2630 0.9125 0.3134
vn -0.2630 0.9125 0.3134
vn -0.2630 0.9125 0.3134
vn -0.1446 0.9062 0.3973
vn -0.1446 0.9062 0.3973
vn -0.1446 0.9062 0.3973
vn -0.1446 0.9062 0.3973
vn -0.9249 -0.0126 -0.3801
vn -0.9249 -0.0126 -0.3801
vn -0.9249 -0.0126 -0.3801
vn -0.9249 -0.0126 -0.3801
vn -0.9249 -0.0126 -0.3801
vn -0.9249 -0.0126 -0.3801
vn -0.9249 -0.0126 -0.3801
vn -0.9249 -0.0126 -0.3801
vn -0.1513 -0.8968 0.4157
vn -0.1513 -0.8968 0.4157
vn -0.1513 -0.8968 0.4157
vn -0.1513 -0.8968 0.4157
vn -0.2749 -0.9040 0.3276
vn -0.2749 -0.9040 0.3276
vn -0.2749 -0.9040 0.3276
vn -0.2749 -0.9040 0.3276
vn 0.6350 0.0006 0.7725
vn 0.6350 0.0006 0.7725
vn 0.6350 0.0006 0.7725
vn 0.6350 0.0006 0.7725
vn 0.6350 0.0006 0.7725
vn 0.6350 0.0006 0.7725
vn 0.6350 0.0006 0.7725
vn 0.6350 0.0006 0.7725
vn 0.1793 0.9603 -0.2137
vn 0.1793 0.9603 -0.2137
vn 0.1793 0.9603 -0.2137
vn 0.1793 0.9603 -0.2137
vn 0.0936 0.9618 -0.2573
vn 0.0936 0.9618 -0.2573
vn 0.0936 0.9618 -0.2573
vn 0.0936 0.9618 -0.2573
vn 0.9521 -0.0080 0.3057
vn 0.9521 -0.0080 0.3057
vn 0.9521 -0.0080 0.3057
vn 0.9521 -0.0080 0.3057
vn 0.9520 -0.0140 0.3057
vn 0.9520 -0.0140 0.3057
vn 0.9520 -0.0140 0.3057
vn 0.9520 -0.0140 0.3057
vn 0.1158 -0.9596 -0.2564
vn 0.1158 -0.9596 -0.2564
vn 0.1158 -0.9596 -0.2564
vn 0.1158 -0.9596 -0.2564
vn 0.1853 -0.9575 -0.2208
vn 0.1853 -0.9575 -0.2208
vn 0.1853 -0.9575 -0.2208
vn 0.1853 -0.9575 -0.2208
vn -0.8141 -0.0148 -0.5806
vn -0.8141 -0.0148 -0.5806
vn -0.8141 -0.0148 -0.5806
vn -0.8141 -0.0148 -0.5806
vn -0.8141 -0.0148 -0.5806
vn -0.8141 -0.0148 -0.5806
vn -0.8141 -0.0148 -0.5806
vn -0.8141 -0.0148 -0.5806
vn -0.3484 0.9155 -0.2012
vn -0.3484 0.9155 -0.2012
vn -0.3484 0.9155 -0.2012
vn -0.3484 0.9155 -0.2012
vn -0.4048 0.9116 -0.0714
vn -0.4048 0.9116 -0.0714
vn -0.4048 0.9116 -0.0714
vn -0.4048 0.9116 -0.0714
vn 0.1794 -0.0106 -0.9837
vn 0.1794 -0.0106 -0.9837
vn 0.1794 -0.0106 -0.9837
vn 0.1794 -0.0106 -0.9837
vn 0.1794 -0.0106 -0.9837
vn 0.1794 -0.0106 -0.9837
vn 0.1794 -0.0106 -0.9837
vn 0.1794 -0.0106 -0.9837
vn -0.4231 -0.9030 -0.0746
vn -0.4231 -0.9030 -0.0746
vn -0.4231 -0.9030 -0.0746
vn -0.4231 -0.9030 -0.0746
vn -0.3640 -0.9074 -0.2101
vn -0.3640 -0.9074 -0.2101
vn -0.3640 -0.9074 -0.2101
vn -0.3640 -0.9074 -0.2101
vn -0.6158 -0.0020 0.7879
vn -0.6158 -0.0020 0.7879
vn -0.6158 -0.0020 0.7879
vn -0.6158 -0.0020 0.7879
vn -0.6158 -0.0020 0.7879
vn -0.6158 -0.0020 0.7879
vn -0.6158 -0.0020 0.7879
vn -0.6158 -0.0020 0.7879
vn 0.9384 0.0585 -0.3407
vn 0.9386 0.0590 -0.3399
vn 0.9983 0.0590 -0.0000
vn 0.9983 0.0590 -0.0000
vn 0.8020 0.0584 -0.5944
vn 0.9386 0.0590 -0.3399
vn 0.9384 0.0585 -0.3407
vn 0.7647 0.0579 -0.6418
vn 0.4992 0.0585 -0.8645
vn 0.4991 0.0585 -0.8646
vn 0.8020 0.0584 -0.5944
vn 0.7647 0.0579 -0.6418
vn 0.1733 0.0573 -0.9832
vn 0.1127 0.0582 -0.9919
vn 0.4991 0.0585 -0.8646
vn 0.4992 0.0585 -0.8645
vn -0.1747 0.0583 -0.9829
vn -0.1757 0.0590 -0.9827
vn 0.1127 0.0582 -0.9919
vn 0.1733 0.0573 -0.9832
vn -0.4991 0.0590 -0.8645
vn -0.4991 0.0590 -0.8645
vn -0.1757 0.0590 -0.9827
vn -0.1747 0.0583 -0.9829
vn -0.7647 0.0590 -0.6417
vn -0.7261 0.0589 -0.6851
vn -0.4991 0.0590 -0.8645
vn -0.4991 0.0590 -0.8645
vn -0.9381 0.0590 -0.3414
vn -0.9381 0.0590 -0.3414
vn -0.7261 0.0589 -0.6851
vn -0.7647 0.0590 -0.6417
vn -0.9983 0.0590 -0.0000
vn -0.9966 0.0589 0.0581
vn -0.9381 0.0590 -0.3414
vn -0.9381 0.0590 -0.3414
vn -0.9381 0.0590 0.3414
vn -0.9381 0.0590 0.3414
vn -0.9966 0.0589 0.0581
vn -0.9983 0.0590 -0.0000
vn -0.7647 0.0590 0.6417
vn -0.8007 0.0589 0.5961
vn -0.9381 0.0590 0.3414
vn -0.9381 0.0590 0.3414
vn -0.4991 0.0590 0.8645
vn -0.4991 0.0590 0.8645
vn -0.8007 0.0589 0.5961
vn -0.7647 0.0590 0.6417
vn -0.1733 0.0590 0.9831
vn -0.1159 0.0589 0.9915
vn -0.4991 0.0590 0.8645
vn -0.4991 0.0590 0.8645
vn 0.1733 0.0590 0.9831
vn 0.1733 0.0590 0.9831
vn -0.1159 0.0589 0.9915
vn -0.1733 0.0590 0.9831
vn 0.4991 0.0590 0.8645
vn 0.4991 0.0590 0.8645
vn 0.1733 0.0590 0.9831
vn 0.1733 0.0590 0.9831
vn 0.7647 0.0590 0.6417
vn 0.7647 0.0590 0.6417
vn 0.4991 0.0590 0.8645
vn 0.4991 0.0590 0.8645
vn 0.9381 0.0590 0.3414
vn 0.9381 0.0590 0.3414
vn 0.7647 0.0590 0.6417
vn 0.7647 0.0590 0.6417
vn 0.9983 0.0590 -0.0000
vn 0.9983 0.0590 -0.0000
vn 0.9381 0.0590 0.3414
vn 0.9381 0.0590 0.3414
# 384 vertex normals

vt 0.8358 0.4895 0.0000
vt 0.8358 0.5560 0.0000
vt 0.7890 0.5560 0.0000
vt 0.7890 0.4895 0.0000
vt 0.8825 0.4895 0.0000
vt 0.8825 0.5560 0.0000
vt 0.9219 0.8024 0.0000
vt 0.9219 0.8689 0.0000
vt 0.8864 0.8693 0.0000
vt 0.8850 0.8028 0.0000
vt 0.9588 0.8028 0.0000
vt 0.9574 0.8693 0.0000
vt 0.1813 0.4895 0.0000
vt 0.1813 0.5560 0.0000
vt 0.1345 0.5560 0.0000
vt 0.1345 0.4895 0.0000
vt 0.2280 0.4895 0.0000
vt 0.2280 0.5560 0.0000
vt 0.2748 0.4895 0.0000
vt 0.2748 0.5560 0.0000
vt 0.9204 0.7959 0.0000
vt 0.9204 0.8612 0.0000
vt 0.8855 0.8612 0.0000
vt 0.8846 0.7959 0.0000
vt 0.9562 0.7959 0.0000
vt 0.9553 0.8612 0.0000
vt 0.4150 0.4895 0.0000
vt 0.4150 0.5560 0.0000
vt 0.3683 0.5560 0.0000
vt 0.3683 0.4895 0.0000
vt 0.4618 0.4895 0.0000
vt 0.4618 0.5560 0.0000
vt 0.9178 0.7951 0.0000
vt 0.9178 0.8593 0.0000
vt 0.8835 0.8597 0.0000
vt 0.8822 0.7955 0.0000
vt 0.9534 0.7955 0.0000
vt 0.9521 0.8597 0.0000
vt 0.6020 0.4895 0.0000
vt 0.6020 0.5560 0.0000
vt 0.5553 0.5560 0.0000
vt 0.5553 0.4895 0.0000
vt 0.6488 0.4895 0.0000
vt 0.6488 0.5560 0.0000
vt 0.6955 0.4895 0.0000
vt 0.6955 0.5560 0.0000
vt 0.7423 0.4895 0.0000
vt 0.7423 0.5560 0.0000
vt 0.8358 0.6224 0.0000
vt 0.7890 0.6224 0.0000
vt 0.8825 0.6224 0.0000
vt 0.9219 0.9354 0.0000
vt 0.8877 0.9358 0.0000
vt 0.9557 0.9350 0.0000
vt 0.1813 0.6224 0.0000
vt 0.1345 0.6224 0.0000
vt 0.2280 0.6224 0.0000
vt 0.2748 0.6224 0.0000
vt 0.9204 0.9265 0.0000
vt 0.8864 0.9265 0.0000
vt 0.9544 0.9265 0.0000
vt 0.4150 0.6224 0.0000
vt 0.3683 0.6224 0.0000
vt 0.4618 0.6224 0.0000
vt 0.9178 0.9235 0.0000
vt 0.8848 0.9238 0.0000
vt 0.9508 0.9238 0.0000
vt 0.6020 0.6224 0.0000
vt 0.5553 0.6224 0.0000
vt 0.6488 0.6224 0.0000
vt 0.6955 0.6224 0.0000
vt 0.7423 0.6224 0.0000
vt 0.8358 0.6889 0.0000
vt 0.7890 0.6889 0.0000
vt 0.8825 0.6889 0.0000
vt 0.9293 0.6889 0.0000
vt 0.9293 0.6224 0.0000
vt 0.9760 0.6889 0.0000
vt 0.9760 0.6224 0.0000
vt 0.1813 0.6889 0.0000
vt 0.1345 0.6889 0.0000
vt 0.2280 0.6889 0.0000
vt 0.2748 0.6889 0.0000
vt 0.3215 0.6889 0.0000
vt 0.3215 0.6224 0.0000
vt 0.3683 0.6889 0.0000
vt 0.4150 0.6889 0.0000
vt 0.4618 0.6889 0.0000
vt 0.5085 0.6889 0.0000
vt 0.5085 0.6224 0.0000
vt 0.5553 0.6889 0.0000
vt 0.6020 0.6889 0.0000
vt 0.6488 0.6889 0.0000
vt 0.6955 0.6889 0.0000
vt 0.7423 0.6889 0.0000
vt 0.5085 0.4895 0.0000
vt 0.9293 0.4895 0.0000
vt 0.9760 0.4895 0.0000
vt 0.9760 0.5560 0.0000
vt 0.3215 0.4895 0.0000
vt 0.7890 0.4562 0.0000
vt 0.8358 0.4562 0.0000
vt 0.8825 0.4562 0.0000
vt 0.9293 0.4562 0.0000
vt 0.9760 0.4562 0.0000
vt 0.1813 0.4562 0.0000
vt 0.1345 0.4562 0.0000
vt 0.2280 0.4562 0.0000
vt 0.2748 0.4562 0.0000
vt 0.3215 0.4562 0.0000
vt 0.3683 0.4562 0.0000
vt 0.4150 0.4562 0.0000
vt 0.4618 0.4562 0.0000
vt 0.5085 0.4562 0.0000
vt 0.5553 0.4562 0.0000
vt 0.6020 0.4562 0.0000
vt 0.6488 0.4562 0.0000
vt 0.6955 0.4562 0.0000
vt 0.7423 0.4562 0.0000
# 119 texture coords

g t3
s off
f 3/3/1 4/4/2 1/1/3 2/2/4 
f 1/1/5 5/5/6 6/6/7 2/2/8 
f 9/9/9 10/10/10 7/7/11 8/8/12 
f 8/8/13 7/7/14 11/11/15 12/12/16 
f 13/13/17 14/14/18 15/15/19 16/16/20 
f 14/14/21 13/13/22 17/17/23 18/18/24 
f 18/18/25 17/17/26 19/19/27 20/20/28 
f 23/23/29 24/24/30 21/21/31 22/22/32 
f 22/22/33 21/21/34 25/25/35 26/26/36 
f 29/29/37 30/30/38 27/27/39 28/28/40 
f 28/28/41 27/27/42 31/31/43 32/32/44 
f 35/35/45 36/36/46 33/33/47 34/34/48 
f 34/34/49 33/33/50 37/37/51 38/38/52 
f 41/41/53 42/42/54 39/39/55 40/40/56 
f 40/40/57 39/39/58 43/43/59 44/44/60 
f 44/44/61 43/43/62 45/45/63 46/46/64 
f 46/46/65 45/45/66 47/47/67 48/48/68 
f 48/48/69 47/47/70 4/4/71 3/3/72 
f 50/50/73 3/3/74 2/2/75 49/49/76 
f 6/6/77 51/51/78 49/49/79 2/2/80 
f 53/53/81 9/9/82 8/8/83 52/52/84 
f 8/8/85 12/12/86 54/54/87 52/52/88 
f 56/56/89 15/15/90 14/14/91 55/55/92 
f 55/55/93 14/14/94 18/18/95 57/57/96 
f 57/57/97 18/18/98 20/20/99 58/58/100 
f 60/60/101 23/23/102 22/22/103 59/59/104 
f 59/59/105 22/22/106 26/26/107 61/61/108 
f 63/63/109 29/29/110 28/28/111 62/62/112 
f 62/62/113 28/28/114 32/32/115 64/64/116 
f 66/66/117 35/35/118 34/34/119 65/65/120 
f 65/65/121 34/34/122 38/38/123 67/67/124 
f 69/69/125 41/41/126 40/40/127 68/68/128 
f 68/68/129 40/40/130 44/44/131 70/70/132 
f 70/70/133 44/44/134 46/46/135 71/71/136 
f 71/71/137 46/46/138 48/48/139 72/72/140 
f 72/72/141 48/48/142 3/3/143 50/50/144 
f 50/50/145 49/49/146 73/73/147 74/74/148 
f 51/51/149 75/75/150 73/73/151 49/49/152 
f 51/51/153 77/77/154 76/76/155 75/75/156 
f 78/78/157 76/76/158 77/77/159 56/79/160 
f 56/56/161 55/55/162 79/80/163 78/81/164 
f 55/55/165 57/57/166 80/82/167 79/80/168 
f 57/57/169 58/58/170 81/83/171 80/82/172 
f 58/58/173 83/85/174 82/84/175 81/83/176 
f 83/85/177 63/63/178 84/86/179 82/84/180 
f 63/63/181 62/62/182 85/87/183 84/86/184 
f 62/62/185 64/64/186 86/88/187 85/87/188 
f 64/64/189 88/90/190 87/89/191 86/88/192 
f 88/90/193 69/69/194 89/91/195 87/89/196 
f 69/69/197 68/68/198 90/92/199 89/91/200 
f 68/68/201 70/70/202 91/93/203 90/92/204 
f 70/70/205 71/71/206 92/94/207 91/93/208 
f 71/71/209 72/72/210 93/95/211 92/94/212 
f 72/72/213 50/50/214 74/74/215 93/95/216 
f 94/96/217 33/96/218 36/31/219 31/31/220 
f 42/42/221 37/42/222 33/96/223 94/96/224 
f 41/41/225 38/41/226 37/42/227 42/42/228 
f 41/41/229 69/69/230 67/69/231 38/41/232 
f 69/69/233 88/90/234 65/90/235 67/69/236 
f 88/90/237 64/64/238 66/64/239 65/90/240 
f 32/32/241 35/32/242 66/64/243 64/64/244 
f 32/32/245 31/31/246 36/31/247 35/32/248 
f 5/5/249 95/97/250 7/97/251 10/5/252 
f 16/98/253 11/98/254 7/97/255 95/97/256 
f 15/15/257 12/99/258 11/98/259 16/16/260 
f 15/15/261 56/56/262 54/79/263 12/99/264 
f 56/79/265 77/77/266 52/77/267 54/79/268 
f 51/51/269 53/51/270 52/77/271 77/77/272 
f 6/6/273 9/6/274 53/51/275 51/51/276 
f 6/6/277 5/5/278 10/5/279 9/6/280 
f 96/100/281 21/100/282 24/19/283 19/19/284 
f 30/30/285 25/30/286 21/100/287 96/100/288 
f 29/29/289 26/29/290 25/30/291 30/30/292 
f 29/29/293 63/63/294 61/63/295 26/29/296 
f 63/63/297 83/85/298 59/85/299 61/63/300 
f 83/85/301 58/58/302 60/58/303 59/85/304 
f 20/20/305 23/20/306 60/58/307 58/58/308 
f 20/20/309 19/19/310 24/19/311 23/20/312 
f 98/102/313 1/1/314 4/4/315 97/101/316 
f 5/5/317 1/1/318 98/102/319 99/103/320 
f 100/104/321 95/97/322 5/5/323 99/103/324 
f 101/105/325 16/98/326 95/97/327 100/104/328 
f 102/106/329 13/13/330 16/16/331 101/107/332 
f 103/108/333 17/17/334 13/13/335 102/106/336 
f 104/109/337 19/19/338 17/17/339 103/108/340 
f 105/110/341 96/100/342 19/19/343 104/109/344 
f 106/111/345 30/30/346 96/100/347 105/110/348 
f 107/112/349 27/27/350 30/30/351 106/111/352 
f 108/113/353 31/31/354 27/27/355 107/112/356 
f 109/114/357 94/96/358 31/31/359 108/113/360 
f 110/115/361 42/42/362 94/96/363 109/114/364 
f 111/116/365 39/39/366 42/42/367 110/115/368 
f 112/117/369 43/43/370 39/39/371 111/116/372 
f 113/118/373 45/45/374 43/43/375 112/117/376 
f 114/119/377 47/47/378 45/45/379 113/118/380 
f 97/101/381 4/4/382 47/47/383 114/119/384 
# 96 polygons

