# 3ds Max Wavefront OBJ Exporter v0.97b - (c)2007 guruware
# File Created: 06.07.2016 21:16:10

#
# object Object002
#

v  2.1563 12.5658 -1.2148
v  2.4669 12.8264 -1.2148
v  2.4669 12.8264 -0.7445
v  2.1563 12.5658 -0.7445
v  1.7754 12.4271 -1.2148
v  1.7754 12.4271 -0.7445
v  1.3700 12.4271 -1.2148
v  1.3700 12.4271 -0.7445
v  0.9890 12.5658 -1.2148
v  0.9890 12.5658 -0.7445
v  0.6785 12.8264 -1.2148
v  0.6785 12.8264 -0.7445
v  0.4758 13.1774 -1.2148
v  0.4758 13.1774 -0.7445
v  0.4054 13.5767 -1.2148
v  0.4054 13.5767 -0.7445
v  0.4758 13.9759 -1.2148
v  0.4758 13.9759 -0.7445
v  1.3700 14.7263 -1.2148
v  0.9890 14.5876 -1.2148
v  0.9890 14.5876 -0.7445
v  1.3700 14.7263 -0.7445
v  1.7754 14.7263 -1.2148
v  1.7754 14.7263 -0.7445
v  2.1563 14.5876 -1.2148
v  2.1563 14.5876 -0.7445
v  2.4669 14.3270 -1.2148
v  2.4669 14.3270 -0.7445
v  2.6696 13.9759 -1.2148
v  2.6696 13.9759 -0.7445
v  2.0217 12.7990 -1.2148
v  2.2606 12.9994 -1.2148
v  1.7286 12.6923 -1.2148
v  1.4167 12.6923 -1.2148
v  1.1237 12.7990 -1.2148
v  0.8847 12.9994 -1.2148
v  0.7288 13.2695 -1.2148
v  0.6746 13.5767 -1.2148
v  0.7288 13.8838 -1.2148
v  1.4167 14.4611 -1.2148
v  1.1237 14.3544 -1.2148
v  1.7286 14.4611 -1.2148
v  2.0217 14.3544 -1.2148
v  2.2606 14.1539 -1.2148
v  2.4166 13.8838 -1.2148
v  2.0168 12.8074 -0.7445
v  2.2532 13.0057 -0.7445
v  1.7269 12.7018 -0.7445
v  1.4184 12.7018 -0.7445
v  1.1285 12.8074 -0.7445
v  0.8922 13.0057 -0.7445
v  0.7379 13.2729 -0.7445
v  0.6843 13.5767 -0.7445
v  0.7379 13.8805 -0.7445
v  1.4184 14.4515 -0.7445
v  1.1285 14.3460 -0.7445
v  1.7269 14.4515 -0.7445
v  2.0168 14.3460 -0.7445
v  2.2532 14.1477 -0.7445
v  2.4074 13.8805 -0.7445
v  1.8436 12.8264 -0.0496
v  1.7695 13.1774 0.1531
v  1.4474 13.1774 0.1531
v  1.3733 12.8264 -0.0496
v  1.8436 12.4271 -0.7411
v  1.8436 12.5658 -0.3602
v  1.3733 12.5658 -0.3602
v  1.3733 12.4271 -0.7411
v  1.8436 12.4271 -1.1465
v  1.3733 12.4271 -1.1465
v  1.8436 12.5658 -1.5275
v  1.3733 12.5658 -1.5275
v  1.8436 12.8264 -1.8381
v  1.3733 12.8264 -1.8381
v  1.8436 13.1774 -2.0408
v  1.3733 13.1774 -2.0408
v  1.8436 13.5767 -2.1112
v  1.3733 13.5767 -2.1112
v  1.8436 13.9759 -2.0408
v  1.3733 13.9759 -2.0408
v  1.8436 14.7263 -1.1465
v  1.8436 14.5876 -1.5275
v  1.3733 14.5876 -1.5275
v  1.3733 14.7263 -1.1465
v  1.8436 14.7263 -0.7411
v  1.3733 14.7263 -0.7411
v  1.8436 14.5876 -0.3602
v  1.3733 14.5876 -0.3602
v  1.8436 14.3270 -0.0496
v  1.3733 14.3270 -0.0496
v  1.7695 13.9759 0.1531
v  1.4474 13.9759 0.1531
v  1.7695 13.2695 -0.1000
v  1.9200 13.5767 -0.0458
v  1.9200 13.5767 0.2235
v  1.8436 12.9994 -0.2559
v  1.8436 12.6923 -0.7879
v  1.8436 12.7990 -0.4948
v  1.8436 12.6923 -1.0998
v  1.8436 12.7990 -1.3929
v  1.8436 12.9994 -1.6318
v  1.8436 13.2695 -1.7877
v  1.8436 13.5767 -1.8419
v  1.8436 13.8838 -1.7877
v  1.8436 14.4611 -1.0998
v  1.8436 14.3544 -1.3929
v  1.8436 14.4611 -0.7879
v  1.8436 14.3544 -0.4948
v  1.8436 14.1539 -0.2559
v  1.7695 13.8838 -0.1000
v  1.4474 13.2729 -0.1091
v  1.2969 13.5767 0.2235
v  1.2969 13.5767 -0.0555
v  1.3733 13.0057 -0.2633
v  1.3733 12.7018 -0.7896
v  1.3733 12.8074 -0.4997
v  1.3733 12.7018 -1.0981
v  1.3733 12.8074 -1.3880
v  1.3733 13.0057 -1.6244
v  1.3733 13.2729 -1.7786
v  1.3733 13.5767 -1.8322
v  1.3733 13.8805 -1.7786
v  1.3733 14.4515 -1.0981
v  1.3733 14.3460 -1.3880
v  1.3733 14.4515 -0.7896
v  1.3733 14.3460 -0.4997
v  1.3733 14.1477 -0.2633
v  1.4474 13.8805 -0.1091
v  1.7003 13.3177 0.1778
v  1.5166 13.3177 0.1778
v  1.7988 13.5767 0.2366
v  1.7003 13.8357 0.1778
v  1.5166 13.8357 0.1778
v  1.4181 13.5767 0.2366
v  1.4250 13.5767 -0.0348
v  1.5082 13.4126 -0.0832
v  1.5082 13.7408 -0.0832
v  1.7087 13.7430 -0.0764
v  1.7914 13.5767 -0.0303
v  1.7087 13.4103 -0.0764
# 140 vertices

vn 0.5000 -0.8660 0.0000
vn 0.6428 -0.7660 0.0000
vn 0.1736 -0.9848 0.0000
vn -0.1736 -0.9848 0.0000
vn -0.1736 -0.9848 -0.0000
vn -0.5000 -0.8660 -0.0000
vn -0.5000 -0.8660 0.0000
vn -0.7660 -0.6428 0.0000
vn -0.9397 -0.3420 0.0000
vn -1.0000 0.0000 -0.0000
vn -1.0000 0.0000 0.0000
vn -0.9848 0.1736 -0.0000
vn -0.3420 0.9397 -0.0000
vn -0.0000 1.0000 -0.0000
vn 0.3420 0.9397 -0.0000
vn 0.6428 0.7660 -0.0000
vn 0.8660 0.5000 -0.0000
vn -0.0000 0.0000 -1.0000
vn 0.0000 0.0000 -1.0000
vn 0.0000 -0.0000 -1.0000
vn -0.0000 -0.0000 -1.0000
vn 0.0000 -0.0000 1.0000
vn -0.0000 -0.0000 1.0000
vn -0.0000 0.0000 1.0000
vn 0.0000 0.0000 1.0000
vn -0.4999 0.8658 -0.0206
vn -0.6427 0.7659 -0.0203
vn -0.8658 -0.4999 -0.0203
vn -0.6427 -0.7659 -0.0203
vn -0.3419 -0.9395 -0.0203
vn 0.0000 -0.9998 -0.0203
vn 0.3419 -0.9395 -0.0203
vn 0.9846 -0.1736 -0.0203
vn 0.9998 0.0000 -0.0206
vn 0.9395 0.3419 -0.0206
vn 0.7659 0.6427 -0.0206
vn 0.4999 0.8658 -0.0206
vn 0.1736 0.9846 -0.0206
vn -0.1736 0.9846 -0.0206
vn -0.0000 -0.5000 0.8660
vn -0.0000 -0.9848 0.1736
vn -0.0000 -0.9397 0.3420
vn -0.0000 -0.9848 -0.1736
vn 0.0000 -0.9848 -0.1736
vn 0.0000 -0.8660 -0.5000
vn 0.0000 -0.6428 -0.7660
vn -0.0000 -0.6428 -0.7660
vn -0.0000 -0.3420 -0.9397
vn 0.0000 0.1736 -0.9848
vn 0.0000 0.9848 -0.1736
vn 0.0000 0.9397 -0.3420
vn 0.0000 0.9848 0.1736
vn 0.0000 0.8660 0.5000
vn 0.0000 0.6510 0.7591
vn 0.0000 0.3783 0.9257
vn 0.9221 -0.3812 -0.0672
vn 0.9793 0.1754 0.1012
vn 1.0000 0.0000 -0.0000
vn 1.0000 0.0000 0.0000
vn 1.0000 -0.0000 0.0000
vn 1.0000 -0.0000 -0.0000
vn 0.9793 -0.1754 0.1012
vn 0.9221 0.3812 -0.0672
vn -0.9214 -0.3827 -0.0675
vn -0.9791 0.1762 0.1017
vn -1.0000 -0.0000 0.0000
vn -1.0000 -0.0000 -0.0000
vn -0.9791 -0.1762 0.1017
vn -0.9214 0.3827 -0.0675
vn 0.0250 0.4988 -0.8663
vn 0.0297 0.4936 -0.8692
vn 0.0237 0.5002 -0.8656
vn 0.0203 0.5041 -0.8634
vn 0.0277 -0.3762 -0.9261
vn 0.0206 -0.6518 -0.7581
vn 0.0228 -0.6538 -0.7563
vn 0.0300 -0.3826 -0.9234
vn 0.0206 -0.8658 -0.4999
vn 0.0206 -0.9846 -0.1736
vn 0.0206 -0.9846 0.1736
vn 0.0203 -0.9395 0.3419
vn 0.0203 -0.1736 0.9846
vn 0.0206 0.0000 0.9998
vn 0.0206 0.3419 0.9395
vn 0.0206 0.6427 0.7659
vn 0.0206 0.8658 0.4999
vn 0.0206 0.9846 0.1736
vn 0.0206 0.9846 -0.1736
vn 0.0203 0.9395 -0.3419
vn -0.0000 -0.1736 0.9848
vn 0.0414 -0.2075 0.9774
vn 0.0414 0.2075 0.9774
vn 0.3914 -0.4994 0.7729
vn -0.3962 -0.4799 0.7828
vn -0.0414 0.2075 0.9774
vn -0.0414 -0.2075 0.9774
vn 0.0605 0.2414 -0.9685
vn 0.0605 -0.2414 -0.9685
vn -0.4648 -0.7821 -0.4150
vn 0.4932 -0.7771 -0.3910
vn -0.0349 -0.2235 -0.9741
vn -0.0349 0.2235 -0.9741
vn 0.0318 0.1736 -0.9843
vn 0.9362 -0.3507 0.0238
vn 0.9196 -0.3859 0.0739
vn 0.9231 0.3789 0.0656
vn 0.9375 0.3357 0.0919
vn 0.9191 0.3895 0.0591
vn 0.8944 0.4467 0.0228
vn -0.0004 0.9397 0.3421
vn 0.0000 0.9396 0.3424
vn -0.0006 0.9397 0.3420
vn -0.0010 0.9398 0.3417
vn -0.9239 0.3771 0.0649
vn -0.9363 0.3502 0.0260
vn -0.9210 0.3826 0.0730
vn -0.9017 0.4148 0.1215
vn -0.9238 -0.3772 0.0656
vn -0.8978 -0.4397 0.0249
vn 0.0000 -0.5000 -0.8660
vn 0.0000 0.9397 0.3420
vn 0.3420 -0.9397 0.0000
vn -0.8660 -0.5000 0.0000
vn 0.0000 0.5000 0.8660
vn -0.0000 -0.7660 -0.6428
# 125 vertex normals

vt 0.4963 0.9251 0.0000
vt 0.5630 0.9216 0.0000
vt 0.5520 0.8131 0.0000
vt 0.4869 0.8236 0.0000
vt 0.4321 0.9317 0.0000
vt 0.4246 0.8297 0.0000
vt 0.3685 0.9366 0.0000
vt 0.3637 0.8340 0.0000
vt 0.3049 0.9389 0.0000
vt 0.3031 0.8361 0.0000
vt 0.2413 0.9388 0.0000
vt 0.2426 0.8361 0.0000
vt 0.1776 0.9361 0.0000
vt 0.1815 0.8339 0.0000
vt 0.1132 0.9317 0.0000
vt 0.1191 0.8300 0.0000
vt 0.0464 0.9305 0.0000
vt 0.0536 0.8217 0.0000
vt 0.6881 0.1047 0.0000
vt 0.6216 0.1055 0.0000
vt 0.6288 0.2134 0.0000
vt 0.6943 0.2064 0.0000
vt 0.7521 0.1007 0.0000
vt 0.7566 0.2026 0.0000
vt 0.8156 0.0982 0.0000
vt 0.8182 0.2000 0.0000
vt 0.8799 0.0972 0.0000
vt 0.8806 0.1988 0.0000
vt 0.9465 0.0936 0.0000
vt 0.9464 0.2018 0.0000
vt 0.4971 0.9697 0.0000
vt 0.5536 0.9692 0.0000
vt 0.4352 0.9760 0.0000
vt 0.3708 0.9811 0.0000
vt 0.3057 0.9836 0.0000
vt 0.2405 0.9833 0.0000
vt 0.1761 0.9805 0.0000
vt 0.1140 0.9763 0.0000
vt 0.0574 0.9778 0.0000
vt 0.6890 0.0602 0.0000
vt 0.6326 0.0584 0.0000
vt 0.7506 0.0564 0.0000
vt 0.8139 0.0539 0.0000
vt 0.8758 0.0530 0.0000
vt 0.9320 0.0473 0.0000
vt 0.4770 0.7775 0.0000
vt 0.5307 0.7673 0.0000
vt 0.4194 0.7838 0.0000
vt 0.3610 0.7878 0.0000
vt 0.3024 0.7898 0.0000
vt 0.2437 0.7898 0.0000
vt 0.1851 0.7878 0.0000
vt 0.1274 0.7835 0.0000
vt 0.0734 0.7752 0.0000
vt 0.7019 0.2535 0.0000
vt 0.6479 0.2580 0.0000
vt 0.7600 0.2487 0.0000
vt 0.8186 0.2461 0.0000
vt 0.8761 0.2456 0.0000
vt 0.9303 0.2479 0.0000
vt 0.5125 0.6660 0.0000
vt 0.4606 0.6749 0.0000
vt 0.8757 0.3493 0.0000
vt 0.9292 0.3502 0.0000
vt 0.8215 0.3492 0.0000
vt 0.7679 0.3515 0.0000
vt 0.7150 0.3564 0.0000
vt 0.6484 0.3600 0.0000
vt 0.7023 0.3587 0.0000
vt 0.1402 0.6804 0.0000
vt 0.0881 0.6733 0.0000
vt 0.1928 0.6849 0.0000
vt 0.2464 0.6868 0.0000
vt 0.3006 0.6868 0.0000
vt 0.3547 0.6850 0.0000
vt 0.4082 0.6812 0.0000
vt 0.6688 0.4370 0.0000
vt 0.6781 0.5116 0.0000
vt 0.7324 0.5139 0.0000
vt 0.7482 0.4405 0.0000
vt 0.1275 0.0962 0.0000
vt 0.0424 0.0977 0.0000
vt 0.0459 0.1813 0.0000
vt 0.1302 0.1748 0.0000
vt 0.2129 0.0924 0.0000
vt 0.2139 0.1721 0.0000
vt 0.2952 0.0918 0.0000
vt 0.2937 0.1716 0.0000
vt 0.3709 0.0952 0.0000
vt 0.3664 0.1739 0.0000
vt 0.4382 0.1023 0.0000
vt 0.4311 0.1786 0.0000
vt 0.5010 0.1105 0.0000
vt 0.4917 0.1864 0.0000
vt 0.5671 0.1131 0.0000
vt 0.5551 0.2020 0.0000
vt 0.3565 0.4619 0.0000
vt 0.3573 0.5365 0.0000
vt 0.2889 0.5373 0.0000
vt 0.2880 0.4627 0.0000
vt 0.1571 0.3349 0.0000
vt 0.1574 0.4446 0.0000
vt 0.0590 0.4449 0.0000
vt 0.0587 0.3351 0.0000
vt 0.7535 0.7955 0.0000
vt 0.7559 0.7114 0.0000
vt 0.6707 0.7134 0.0000
vt 0.6758 0.7979 0.0000
vt 0.7541 0.8714 0.0000
vt 0.6805 0.8747 0.0000
vt 0.7543 0.9434 0.0000
vt 0.6907 0.9467 0.0000
vt 0.6222 0.4980 0.0000
vt 0.6056 0.5546 0.0000
vt 0.6575 0.5823 0.0000
vt 0.6151 0.4401 0.0000
vt 0.1319 0.0511 0.0000
vt 0.0620 0.0502 0.0000
vt 0.2083 0.0472 0.0000
vt 0.2860 0.0440 0.0000
vt 0.3618 0.0437 0.0000
vt 0.4339 0.0474 0.0000
vt 0.5000 0.0536 0.0000
vt 0.5584 0.0510 0.0000
vt 0.1786 0.4659 0.0000
vt 0.1793 0.5232 0.0000
vt 0.1399 0.5389 0.0000
vt 0.1391 0.4644 0.0000
vt 0.2126 0.3474 0.0000
vt 0.2128 0.4318 0.0000
vt 0.8011 0.7880 0.0000
vt 0.8050 0.7195 0.0000
vt 0.8010 0.8542 0.0000
vt 0.8109 0.9134 0.0000
vt 0.5679 0.5998 0.0000
vt 0.6101 0.6387 0.0000
vt 0.7913 0.5050 0.0000
vt 0.7467 0.5862 0.0000
vt 0.8027 0.5623 0.0000
vt 0.8033 0.4486 0.0000
vt 0.1393 0.2216 0.0000
vt 0.0716 0.2282 0.0000
vt 0.2113 0.2194 0.0000
vt 0.2826 0.2210 0.0000
vt 0.3505 0.2258 0.0000
vt 0.4141 0.2334 0.0000
vt 0.4734 0.2439 0.0000
vt 0.5269 0.2603 0.0000
vt 0.2471 0.4652 0.0000
vt 0.2477 0.5219 0.0000
vt 0.2357 0.6445 0.0000
vt 0.2258 0.5864 0.0000
vt 0.3354 0.5924 0.0000
vt 0.3192 0.6491 0.0000
vt 0.6264 0.7919 0.0000
vt 0.6209 0.7220 0.0000
vt 0.6291 0.8629 0.0000
vt 0.6303 0.9258 0.0000
vt 0.7890 0.6465 0.0000
vt 0.8361 0.6102 0.0000
vt 0.8405 0.5283 0.0000
vt 0.8755 0.4817 0.0000
vt 0.8663 0.9119 0.0000
vt 0.8796 0.8547 0.0000
vt 0.8808 0.7918 0.0000
vt 0.8847 0.7258 0.0000
vt 0.3110 0.3475 0.0000
vt 0.3112 0.4311 0.0000
vt 0.4534 0.3218 0.0000
vt 0.5042 0.3362 0.0000
vt 0.4012 0.3117 0.0000
vt 0.3435 0.3048 0.0000
vt 0.2801 0.3004 0.0000
vt 0.2129 0.2990 0.0000
vt 0.1449 0.3014 0.0000
vt 0.0788 0.3073 0.0000
vt 0.0370 0.5738 0.0000
vt 0.0333 0.6287 0.0000
vt 0.0583 0.6183 0.0000
vt 0.0604 0.5875 0.0000
vt 0.1019 0.6572 0.0000
vt 0.1033 0.6365 0.0000
vt 0.1737 0.6381 0.0000
vt 0.1503 0.6245 0.0000
vt 0.1774 0.5833 0.0000
vt 0.1524 0.5937 0.0000
vt 0.1088 0.5548 0.0000
vt 0.1074 0.5754 0.0000
vt 0.4704 0.5603 0.0000
vt 0.4180 0.5326 0.0000
vt 0.4164 0.5546 0.0000
vt 0.4455 0.5693 0.0000
vt 0.3622 0.5523 0.0000
vt 0.3855 0.5649 0.0000
vt 0.3578 0.6074 0.0000
vt 0.3829 0.5985 0.0000
vt 0.4104 0.6356 0.0000
vt 0.4120 0.6136 0.0000
vt 0.4666 0.6154 0.0000
vt 0.4431 0.6030 0.0000
vt 0.4480 0.3523 0.0000
vt 0.3871 0.3563 0.0000
vt 0.4153 0.4099 0.0000
vt 0.4276 0.4076 0.0000
vt 0.3422 0.4207 0.0000
vt 0.4027 0.4168 0.0000
vt 0.3950 0.4788 0.0000
vt 0.4161 0.4219 0.0000
vt 0.4559 0.4749 0.0000
vt 0.4285 0.4226 0.0000
vt 0.5005 0.4105 0.0000
vt 0.4408 0.4143 0.0000
vt 0.2476 0.5658 0.0000
vt 0.1791 0.5656 0.0000
vt 0.5836 0.2786 0.0000
vt 0.5589 0.3542 0.0000
vt 0.0267 0.7678 0.0000
vt 0.0430 0.6659 0.0000
vt 0.5771 0.7583 0.0000
vt 0.5572 0.6571 0.0000
vt 0.9776 0.2488 0.0000
vt 0.9748 0.3518 0.0000
vt 0.6017 0.2575 0.0000
vt 0.6017 0.3606 0.0000
vt 0.0209 0.2339 0.0000
vt 0.0299 0.3129 0.0000
vt 0.7506 0.3848 0.0000
vt 0.6711 0.3833 0.0000
# 228 texture coords

g Object002
s 1
f 1/1/1 2/2/2 3/3/2 4/4/1 
f 5/5/3 1/1/1 4/4/1 6/6/3 
f 7/7/4 5/5/3 6/6/3 8/8/5 
f 9/9/6 7/7/4 8/8/5 10/10/7 
f 11/11/8 9/9/6 10/10/7 12/12/8 
f 13/13/9 11/11/8 12/12/8 14/14/9 
f 15/15/10 13/13/9 14/14/9 16/16/11 
f 17/17/12 15/15/10 16/16/11 18/18/12 
s off
f 19/19/13 20/20/13 21/21/13 22/22/13 
f 23/23/14 19/19/14 22/22/14 24/24/14 
f 25/25/15 23/23/15 24/24/15 26/26/15 
f 27/27/16 25/25/16 26/26/16 28/28/16 
f 29/29/17 27/27/17 28/28/17 30/30/17 
f 31/31/18 32/32/18 2/2/18 1/1/18 
f 33/33/18 31/31/18 1/1/18 5/5/18 
f 34/34/18 33/33/18 5/5/18 7/7/18 
f 35/35/19 34/34/19 7/7/19 9/9/19 
f 36/36/19 35/35/19 9/9/19 11/11/19 
f 37/37/19 36/36/19 11/11/19 13/13/19 
f 38/38/19 37/37/19 13/13/19 15/15/19 
f 39/39/20 38/38/20 15/15/20 17/17/20 
f 40/40/21 41/41/21 20/20/21 19/19/21 
f 42/42/20 40/40/20 19/19/20 23/23/20 
f 43/43/21 42/42/21 23/23/21 25/25/21 
f 44/44/21 43/43/21 25/25/21 27/27/21 
f 45/45/21 44/44/21 27/27/21 29/29/21 
f 46/46/22 4/4/22 3/3/22 47/47/22 
f 48/48/22 6/6/22 4/4/22 46/46/22 
f 49/49/22 8/8/22 6/6/22 48/48/22 
f 50/50/23 10/10/23 8/8/23 49/49/23 
f 51/51/23 12/12/23 10/10/23 50/50/23 
f 52/52/23 14/14/23 12/12/23 51/51/23 
f 53/53/23 16/16/23 14/14/23 52/52/23 
f 54/54/24 18/18/24 16/16/24 53/53/24 
f 55/55/24 22/22/24 21/21/24 56/56/24 
f 57/57/24 24/24/24 22/22/24 55/55/24 
f 58/58/25 26/26/25 24/24/25 57/57/25 
f 59/59/25 28/28/25 26/26/25 58/58/25 
f 60/60/25 30/30/25 28/28/25 59/59/25 
s 1
f 46/46/26 47/47/27 32/61/27 31/62/26 
s off
f 60/60/28 59/59/28 44/63/28 45/64/28 
f 59/59/29 58/58/29 43/65/29 44/63/29 
f 58/58/30 57/57/30 42/66/30 43/65/30 
f 57/57/31 55/55/31 40/67/31 42/66/31 
f 55/55/32 56/56/32 41/68/32 40/69/32 
s 1
f 54/54/33 53/53/34 38/70/34 39/71/33 
f 53/53/34 52/52/35 37/72/35 38/70/34 
f 52/52/35 51/51/36 36/73/36 37/72/35 
f 51/51/36 50/50/37 35/74/37 36/73/36 
f 50/50/37 49/49/38 34/75/38 35/74/37 
f 49/49/38 48/48/39 33/76/39 34/75/38 
f 48/48/39 46/46/26 31/62/26 33/76/39 
s off
f 61/77/40 62/78/40 63/79/40 64/80/40 
s 1
f 65/81/41 66/82/42 67/83/42 68/84/41 
f 69/85/43 65/81/41 68/84/41 70/86/44 
f 71/87/45 69/85/43 70/86/44 72/88/45 
f 73/89/46 71/87/45 72/88/45 74/90/47 
f 75/91/48 73/89/46 74/90/47 76/92/48 
f 77/93/21 75/91/48 76/92/48 78/94/20 
f 79/95/49 77/93/21 78/94/20 80/96/49 
s 2
f 81/97/50 82/98/51 83/99/51 84/100/50 
f 85/101/52 81/102/50 84/103/50 86/104/52 
f 87/105/53 85/106/52 86/107/52 88/108/53 
f 89/109/54 87/105/53 88/108/53 90/110/54 
f 91/111/55 89/109/54 90/110/54 92/112/55 
s off
f 93/113/56 94/114/56 95/115/56 62/78/56 
f 96/116/57 93/113/57 62/78/57 61/77/57 
f 97/117/58 98/118/58 66/82/58 65/81/58 
f 99/119/58 97/117/58 65/81/58 69/85/58 
f 100/120/59 99/119/59 69/85/59 71/87/59 
f 101/121/59 100/120/59 71/87/59 73/89/59 
f 102/122/59 101/121/59 73/89/59 75/91/59 
f 103/123/59 102/122/59 75/91/59 77/93/59 
f 104/124/60 103/123/60 77/93/60 79/95/60 
f 105/125/61 106/126/61 82/127/61 81/128/61 
f 107/129/60 105/130/60 81/102/60 85/101/60 
f 108/131/61 107/132/61 85/106/61 87/105/61 
f 109/133/61 108/131/61 87/105/61 89/109/61 
f 110/134/62 109/133/62 89/109/62 91/111/62 
f 94/114/63 110/135/63 91/136/63 95/115/63 
f 111/137/64 63/79/64 112/138/64 113/139/64 
f 114/140/65 64/80/65 63/79/65 111/137/65 
f 115/141/66 68/84/66 67/83/66 116/142/66 
f 117/143/66 70/86/66 68/84/66 115/141/66 
f 118/144/67 72/88/67 70/86/67 117/143/67 
f 119/145/67 74/90/67 72/88/67 118/144/67 
f 120/146/67 76/92/67 74/90/67 119/145/67 
f 121/147/67 78/94/67 76/92/67 120/146/67 
f 122/148/10 80/96/10 78/94/10 121/147/10 
f 123/149/10 84/100/10 83/99/10 124/150/10 
f 125/151/10 86/152/10 84/153/10 123/154/10 
f 126/155/11 88/108/11 86/107/11 125/156/11 
f 127/157/11 90/110/11 88/108/11 126/155/11 
f 128/158/68 92/112/68 90/110/68 127/157/68 
f 113/139/69 112/138/69 92/159/69 128/160/69 
s 1
f 114/140/70 111/137/71 93/161/72 96/162/73 
s 2
f 128/163/74 127/164/75 109/133/76 110/134/77 
f 127/164/75 126/165/78 108/131/78 109/133/76 
f 126/165/78 125/166/79 107/132/79 108/131/78 
f 125/167/79 123/168/80 105/130/80 107/129/79 
f 123/149/80 124/150/81 106/126/81 105/125/80 
s 1
f 122/148/82 121/147/83 103/169/83 104/170/82 
f 121/147/83 120/146/84 102/171/84 103/169/83 
f 120/146/84 119/145/85 101/172/85 102/171/84 
f 119/145/85 118/144/86 100/173/86 101/172/85 
f 118/144/86 117/143/87 99/174/87 100/173/86 
f 117/143/87 115/141/88 97/175/88 99/174/87 
f 115/141/88 116/142/89 98/176/89 97/175/88 
s off
f 63/177/90 62/178/90 129/179/90 130/180/90 
f 62/178/91 95/181/91 131/182/91 129/179/91 
f 95/181/92 91/183/92 132/184/92 131/182/92 
s 2
f 91/183/55 92/185/55 133/186/93 132/184/94 
s off
f 92/185/95 112/187/95 134/188/95 133/186/95 
f 112/187/96 63/177/96 130/180/96 134/188/96 
f 111/189/97 113/190/97 135/191/97 136/192/97 
f 113/190/98 128/193/98 137/194/98 135/191/98 
s 2
f 128/193/74 110/195/77 138/196/99 137/194/100 
s off
f 110/195/101 94/197/101 139/198/101 138/196/101 
f 94/197/102 93/199/102 140/200/102 139/198/102 
f 93/199/103 111/189/103 136/192/103 140/200/103 
s 2
f 132/201/94 133/202/93 137/203/100 138/204/99 
f 133/202/93 134/205/104 135/206/105 137/203/100 
s 1
f 134/205/106 130/207/107 136/208/108 135/206/109 
s 2
f 130/207/110 129/209/111 140/210/112 136/208/113 
s 1
f 129/209/114 131/211/115 139/212/116 140/210/117 
s 2
f 131/211/118 132/201/94 138/204/99 139/212/119 
s off
f 106/126/120 124/150/120 83/213/120 82/214/120 
f 80/215/121 122/148/121 104/170/121 79/216/121 
f 18/217/15 54/54/15 39/71/15 17/218/15 
f 32/61/16 47/47/16 3/219/16 2/220/16 
f 30/221/122 60/60/122 45/64/122 29/222/122 
f 41/68/123 56/56/123 21/223/123 20/224/123 
f 98/176/124 116/142/124 67/225/124 66/226/124 
f 64/80/125 114/227/125 96/228/125 61/77/125 
# 134 polygons

