# 3ds Max Wavefront OBJ Exporter v0.97b - (c)2007 guruware
# File Created: 06.07.2016 21:16:26

#
# object Object003
#

v  1.7455 13.6104 -1.7056
v  1.7186 13.6842 -1.7056
v  1.7186 13.6842 1.2592
v  1.7455 13.6104 1.2592
v  1.6505 13.7236 -1.7056
v  1.6505 13.7236 1.2592
v  1.5731 13.7099 -1.7056
v  1.5731 13.7099 1.2592
v  1.5226 13.5711 -1.7056
v  1.5226 13.5711 1.2592
v  1.5731 13.5108 -1.7056
v  1.5731 13.5108 1.2592
v  1.6505 13.4972 -1.7056
v  1.6505 13.4972 1.2592
v  1.7186 13.5365 -1.7056
v  1.7186 13.5365 1.2592
v  1.7822 13.7376 1.2121
v  1.8285 13.6104 1.2121
v  1.6649 13.8054 1.2121
v  1.5316 13.7818 1.2121
v  1.4445 13.5427 1.2121
v  1.5316 13.4389 1.2121
v  1.6649 13.4154 1.2121
v  1.7822 13.4831 1.2121
v  1.6306 13.6104 2.0004
v  1.6377 13.6078 -1.7056
# 26 vertices

vn 1.0000 -0.0000 0.0000
vn 0.7660 0.6428 -0.0000
vn 0.2550 0.2140 -0.9430
vn 0.3329 -0.0000 -0.9430
vn 0.1736 0.9848 -0.0000
vn 0.0578 0.3279 -0.9430
vn -0.6428 0.7660 -0.0000
vn -0.1078 0.2010 -0.9737
vn -0.9848 -0.1736 0.0000
vn -0.2117 -0.0847 -0.9737
vn -0.5000 -0.8660 0.0000
vn -0.1665 -0.2883 -0.9430
vn 0.1736 -0.9848 0.0000
vn 0.0578 -0.3279 -0.9430
vn 0.7660 -0.6428 0.0000
vn 0.2550 -0.2140 -0.9430
vn 0.5415 0.4543 -0.7074
vn 0.7068 -0.0000 -0.7074
vn 0.1227 0.6961 -0.7074
vn -0.4777 0.5633 -0.6741
vn -0.7280 -0.1244 -0.6741
vn -0.3534 -0.6121 -0.7074
vn 0.1227 -0.6961 -0.7074
vn 0.5415 -0.4543 -0.7074
vn -0.0105 0.0038 0.9999
vn -0.0000 -0.0000 -1.0000
vn -0.0000 0.0000 -1.0000
vn 0.0000 0.0000 -1.0000
vn 0.0000 -0.0000 -1.0000
# 29 vertex normals

vt 0.1948 0.1286 1.0000
vt 0.2176 0.1058 1.0000
vt 0.7892 0.6774 1.0000
vt 0.7664 0.7002 1.0000
vt 0.2404 0.0829 1.0000
vt 0.8120 0.6546 1.0000
vt 0.2625 0.0608 1.0000
vt 0.8341 0.6324 1.0000
vt 0.0579 0.2655 1.0000
vt 0.1035 0.2199 1.0000
vt 0.6751 0.7915 1.0000
vt 0.6295 0.8371 1.0000
vt 0.1263 0.1970 1.0000
vt 0.6979 0.7686 1.0000
vt 0.1491 0.1742 1.0000
vt 0.7207 0.7458 1.0000
vt 0.1720 0.1514 1.0000
vt 0.7436 0.7230 1.0000
vt 0.8606 0.7488 1.0000
vt 0.8378 0.7716 1.0000
vt 0.8835 0.7260 1.0000
vt 0.8269 0.6243 1.0000
vt 0.9009 0.6822 1.0000
vt 0.7466 0.8629 1.0000
vt 0.7009 0.9085 1.0000
vt 0.7694 0.8401 1.0000
vt 0.7922 0.8173 1.0000
vt 0.8150 0.7945 1.0000
vt 0.9549 0.7975 1.0000
vt 0.9059 0.7042 1.0000
vt 0.8237 0.9287 1.0000
vt 0.8162 0.7939 1.0000
vt 0.0807 0.2427 1.0000
# 33 texture coords

g Object003
s 8
f 1/1/1 2/2/2 3/3/3 4/4/4 
f 2/2/2 5/5/5 6/6/6 3/3/3 
f 5/5/5 7/7/7 8/8/8 6/6/6 
f 7/9/7 9/10/9 10/11/10 8/12/8 
f 9/10/9 11/13/11 12/14/12 10/11/10 
f 11/13/11 13/15/13 14/16/14 12/14/12 
f 13/15/13 15/17/15 16/18/16 14/16/14 
f 15/17/15 1/1/1 4/4/4 16/18/16 
f 4/4/4 3/3/3 17/19/17 18/20/18 
f 3/3/3 6/6/6 19/21/19 17/19/17 
f 6/6/6 8/22/8 20/23/20 19/21/19 
f 8/12/8 10/11/10 21/24/21 20/25/20 
f 10/11/10 12/14/12 22/26/22 21/24/21 
f 12/14/12 14/16/14 23/27/23 22/26/22 
f 14/16/14 16/18/16 24/28/24 23/27/23 
f 16/18/16 4/4/4 18/20/18 24/28/24 
f 18/20/18 17/19/17 25/29/25 
f 17/19/17 19/21/19 25/29/25 
f 19/21/19 20/30/20 25/29/25 
f 20/25/20 21/24/21 25/31/25 
f 21/24/21 22/26/22 25/31/25 
f 22/26/22 23/27/23 25/31/25 
f 23/27/23 24/28/24 25/31/25 
f 24/32/24 18/20/18 25/29/25 
s off
f 2/2/26 1/1/26 26/33/26 
f 1/1/27 15/17/27 26/33/27 
f 15/17/27 13/15/27 26/33/27 
f 13/15/28 11/13/28 26/33/28 
f 11/13/28 9/10/28 26/33/28 
f 9/10/29 7/9/29 26/33/29 
f 7/7/29 5/5/29 26/33/29 
f 5/5/26 2/2/26 26/33/26 
# 16 polygons - 16 triangles

