# 3ds Max Wavefront OBJ Exporter v0.97b - (c)2007 guruware
# File Created: 07.07.2016 16:24:03

#
# object Plane001
#

v  1.5078 0.5848 -0.0000
v  1.7815 0.5848 -0.0000
v  1.9794 -0.0278 0.0000
v  1.3100 -0.0278 0.0000
v  1.8850 -0.1518 0.0000
v  1.4043 -0.1518 0.0000
v  1.6882 -0.2757 0.0000
v  1.6011 -0.2757 0.0000
v  1.2920 -0.0311 0.0123
v  1.1532 -0.0560 0.1071
v  1.4453 0.6663 0.1043
v  1.5006 0.5941 0.0119
v  1.8440 0.6663 0.1043
v  2.1361 -0.0560 0.1071
v  1.9973 -0.0311 0.0123
v  1.7887 0.5941 0.0119
v  1.5979 -0.3046 0.0126
v  1.5732 -0.5284 0.1100
v  1.2512 -0.3243 0.1094
v  1.3868 -0.1715 0.0125
v  2.0381 -0.3243 0.1094
v  1.9025 -0.1715 0.0125
v  1.7161 -0.5284 0.1100
v  1.6914 -0.3046 0.0126
v  1.5078 0.5848 0.2610
v  1.3100 -0.0278 0.2610
v  1.9794 -0.0278 0.2610
v  1.7815 0.5848 0.2610
v  1.4043 -0.1518 0.2610
v  1.8850 -0.1518 0.2610
v  1.6882 -0.2757 0.2610
v  1.6011 -0.2757 0.2610
v  1.4453 0.6663 0.1567
v  1.1532 -0.0560 0.1539
v  1.2920 -0.0311 0.2487
v  1.5006 0.5941 0.2490
v  1.9973 -0.0311 0.2487
v  2.1361 -0.0560 0.1539
v  1.8440 0.6663 0.1567
v  1.7887 0.5941 0.2490
v  1.2512 -0.3243 0.1516
v  1.5732 -0.5284 0.1510
v  1.5979 -0.3046 0.2484
v  1.3868 -0.1715 0.2484
v  1.9025 -0.1715 0.2484
v  2.0381 -0.3243 0.1516
v  1.7161 -0.5284 0.1510
v  1.6914 -0.3046 0.2484
v  1.8511 0.6757 0.1162
v  1.4382 0.6757 0.1162
v  1.4382 0.6757 0.1447
v  1.8511 0.6757 0.1447
v  1.1353 -0.0593 0.1193
v  1.1353 -0.0593 0.1416
v  1.2337 -0.3440 0.1219
v  1.2337 -0.3440 0.1390
v  1.5701 -0.5574 0.1225
v  1.5701 -0.5574 0.1384
v  1.7193 -0.5574 0.1225
v  1.7193 -0.5574 0.1384
v  2.0556 -0.3440 0.1219
v  2.0556 -0.3440 0.1390
v  2.1541 -0.0593 0.1193
v  2.1541 -0.0593 0.1416
# 64 vertices

vn 0.0000 -0.0000 -1.0000
vn -0.5873 0.2156 -0.7802
vn -0.5767 0.2302 -0.7838
vn -0.7064 0.2704 -0.6541
vn -0.7353 0.2450 -0.6319
vn 0.7091 0.2684 -0.6520
vn 0.5776 0.2333 -0.7823
vn 0.5860 0.2172 -0.7807
vn 0.7354 0.2423 -0.6328
vn 0.0000 0.7877 -0.6160
vn -0.2308 -0.3666 -0.9013
vn 0.4989 -0.2182 -0.8388
vn 0.4460 -0.1654 -0.8796
vn 0.4176 -0.2450 -0.8750
vn 0.4904 -0.3324 -0.8056
vn 0.0000 -0.3989 -0.9170
vn -0.4176 -0.2450 -0.8750
vn -0.4460 -0.1654 -0.8796
vn -0.4989 -0.2182 -0.8388
vn -0.4904 -0.3324 -0.8056
vn 0.2308 -0.3666 -0.9013
vn 0.0000 -0.0000 1.0000
vn 0.0000 0.0000 1.0000
vn -0.7091 0.2684 0.6520
vn -0.5776 0.2333 0.7823
vn -0.5860 0.2172 0.7807
vn -0.7354 0.2423 0.6328
vn 0.5873 0.2156 0.7802
vn 0.5767 0.2302 0.7838
vn 0.7064 0.2704 0.6541
vn 0.7353 0.2450 0.6319
vn 0.0000 0.7877 0.6160
vn -0.2308 -0.3666 0.9013
vn 0.4176 -0.2450 0.8750
vn 0.4460 -0.1654 0.8796
vn 0.4989 -0.2182 0.8388
vn 0.4904 -0.3324 0.8056
vn 0.0000 -0.3989 0.9170
vn -0.4989 -0.2182 0.8388
vn -0.4460 -0.1654 0.8796
vn -0.4176 -0.2450 0.8750
vn -0.4904 -0.3324 0.8056
vn 0.2308 -0.3666 0.9013
vn 0.0000 1.0000 -0.0000
vn -0.9245 0.3811 -0.0000
vn -0.9451 -0.3267 0.0000
vn -0.5356 -0.8445 0.0000
vn 0.0000 -1.0000 0.0000
vn 0.5356 -0.8445 0.0000
vn 0.9451 -0.3267 0.0000
vn 0.9245 0.3811 -0.0000
vn -0.5792 0.2313 -0.7816
vn -0.7054 0.2880 -0.6477
vn -0.7331 0.2442 -0.6348
vn -0.5767 0.1862 -0.7954
vn 0.7059 0.2831 -0.6493
vn 0.5767 0.2344 -0.7826
vn 0.5789 0.1927 -0.7923
vn 0.7394 0.2388 -0.6295
vn 0.5228 -0.1977 -0.8292
vn 0.4461 -0.1622 -0.8802
vn 0.3462 -0.2636 -0.9004
vn 0.4780 -0.3267 -0.8153
vn -0.4461 -0.1622 -0.8802
vn -0.5228 -0.1977 -0.8292
vn -0.4780 -0.3267 -0.8153
vn -0.3462 -0.2636 -0.9004
vn -0.7059 0.2831 0.6493
vn -0.5767 0.2344 0.7826
vn -0.5789 0.1927 0.7923
vn -0.7394 0.2388 0.6295
vn 0.5792 0.2313 0.7816
vn 0.7054 0.2880 0.6477
vn 0.7331 0.2442 0.6348
vn 0.5767 0.1862 0.7954
vn 0.4461 -0.1622 0.8802
vn 0.5228 -0.1977 0.8292
vn 0.4780 -0.3267 0.8153
vn 0.3462 -0.2636 0.9004
vn -0.5228 -0.1977 0.8292
vn -0.4461 -0.1622 0.8802
vn -0.3462 -0.2636 0.9004
vn -0.4780 -0.3267 0.8153
# 83 vertex normals

vt 0.8683 0.4818 0.0000
vt 0.9506 0.5173 0.0000
vt 0.9312 0.7292 0.0000
vt 0.7273 0.6412 0.0000
vt 0.8868 0.7527 0.0000
vt 0.7406 0.6897 0.0000
vt 0.8109 0.7636 0.0000
vt 0.7849 0.7523 0.0000
vt 0.7223 0.6400 0.0000
vt 0.6705 0.6260 0.0000
vt 0.8596 0.4421 0.0000
vt 0.8678 0.4793 0.0000
vt 0.9856 0.4965 0.0000
vt 0.9811 0.7600 0.0000
vt 0.9355 0.7320 0.0000
vt 0.9528 0.5159 0.0000
vt 0.7802 0.7608 0.0000
vt 0.7396 0.8304 0.0000
vt 0.6660 0.7239 0.0000
vt 0.7331 0.6935 0.0000
vt 0.9132 0.8305 0.0000
vt 0.8892 0.7608 0.0000
vt 0.7853 0.8501 0.0000
vt 0.8080 0.7727 0.0000
vt 0.8148 0.4255 0.0000
vt 0.6487 0.5581 0.0000
vt 0.5712 0.3500 0.0000
vt 0.7836 0.3416 0.0000
vt 0.6015 0.5420 0.0000
vt 0.5459 0.3930 0.0000
vt 0.5315 0.4682 0.0000
vt 0.5414 0.4946 0.0000
vt 0.8528 0.4363 0.0000
vt 0.6604 0.6149 0.0000
vt 0.6495 0.5630 0.0000
vt 0.8170 0.4261 0.0000
vt 0.5686 0.3458 0.0000
vt 0.5429 0.2996 0.0000
vt 0.8053 0.3086 0.0000
vt 0.7848 0.3397 0.0000
vt 0.5635 0.6136 0.0000
vt 0.4617 0.5353 0.0000
vt 0.5329 0.4986 0.0000
vt 0.5973 0.5489 0.0000
vt 0.5381 0.3905 0.0000
vt 0.4701 0.3636 0.0000
vt 0.4446 0.4895 0.0000
vt 0.5225 0.4706 0.0000
vt 0.8096 0.3027 0.0000
vt 0.8593 0.4384 0.0000
vt 0.8537 0.4367 0.0000
vt 0.8059 0.3076 0.0000
vt 0.6642 0.6247 0.0000
vt 0.6614 0.6195 0.0000
vt 0.5589 0.6245 0.0000
vt 0.5601 0.6202 0.0000
vt 0.4500 0.5420 0.0000
vt 0.4536 0.5393 0.0000
vt 0.4314 0.4920 0.0000
vt 0.4359 0.4917 0.0000
vt 0.4591 0.3582 0.0000
vt 0.4630 0.3607 0.0000
vt 0.5390 0.2900 0.0000
vt 0.5407 0.2956 0.0000
vt 0.9885 0.4947 0.0000
vt 0.9864 0.7631 0.0000
vt 0.7346 0.8390 0.0000
vt 0.6578 0.7276 0.0000
vt 0.9162 0.8389 0.0000
vt 0.7825 0.8596 0.0000
# 70 texture coords

g Plane001
s 1
f 1/1/1 2/2/1 3/3/1 4/4/1 
f 3/3/1 5/5/1 6/6/1 4/4/1 
f 7/7/1 8/8/1 6/6/1 5/5/1 
s 8
f 9/9/2 10/10/3 11/11/4 12/12/5 
f 13/13/6 14/14/7 15/15/8 16/16/9 
s 2
f 11/11/10 13/13/10 16/16/10 12/12/10 
s 32
f 17/17/11 18/18/11 19/19/11 20/20/11 
s 16
f 14/14/12 21/21/13 22/22/14 15/15/15 
s 64
f 23/23/16 18/18/16 17/17/16 24/24/16 
s 16
f 20/20/17 19/19/18 10/10/19 9/9/20 
s 32
f 21/21/21 23/23/21 24/24/21 22/22/21 
s 1
f 25/25/22 26/26/23 27/27/23 28/28/22 
f 27/27/23 26/26/23 29/29/23 30/30/23 
f 31/31/23 30/30/23 29/29/23 32/32/23 
s 8
f 33/33/24 34/34/25 35/35/26 36/36/27 
f 37/37/28 38/38/29 39/39/30 40/40/31 
s 2
f 39/39/32 33/33/32 36/36/32 40/40/32 
s 32
f 41/41/33 42/42/33 43/43/33 44/44/33 
s 16
f 45/45/34 46/46/35 38/38/36 37/37/37 
s 64
f 42/42/38 47/47/38 48/48/38 43/43/38 
s 16
f 34/34/39 41/41/40 44/44/41 35/35/42 
s 32
f 48/48/43 47/47/43 46/46/43 45/45/43 
s 5
f 49/49/44 50/50/44 51/51/44 52/52/44 
s 2147483648
f 50/50/45 53/53/45 54/54/45 51/51/45 
s 1
f 53/53/46 55/55/46 56/56/46 54/54/46 
s 2
f 55/55/47 57/57/47 58/58/47 56/56/47 
s 1
f 57/57/48 59/59/48 60/60/48 58/58/48 
s 2
f 59/59/49 61/61/49 62/62/49 60/60/49 
s 1
f 61/61/50 63/63/50 64/64/50 62/62/50 
s 2147483648
f 63/63/51 49/49/51 52/52/51 64/64/51 
s 8
f 53/53/52 50/50/53 11/11/4 10/10/3 
f 1/1/54 4/4/55 9/9/2 12/12/5 
f 49/65/56 63/66/57 14/14/7 13/13/6 
f 3/3/58 2/2/59 16/16/9 15/15/8 
s 2
f 50/50/10 49/65/10 13/13/10 11/11/10 
f 2/2/10 1/1/10 12/12/10 16/16/10 
s 32
f 18/18/11 57/67/11 55/68/11 19/19/11 
f 20/20/11 6/6/11 8/8/11 17/17/11 
s 16
f 63/66/60 61/69/61 21/21/13 14/14/12 
f 22/22/14 5/5/62 3/3/63 15/15/15 
s 64
f 59/70/16 57/67/16 18/18/16 23/23/16 
f 8/8/16 7/7/16 24/24/16 17/17/16 
s 16
f 19/19/18 55/68/64 53/53/65 10/10/19 
f 4/4/66 6/6/67 20/20/17 9/9/20 
s 32
f 61/69/21 59/70/21 23/23/21 21/21/21 
f 7/7/21 5/5/21 22/22/21 24/24/21 
s 8
f 51/51/68 54/54/69 34/34/25 33/33/24 
f 26/26/70 25/25/71 36/36/27 35/35/26 
f 64/64/72 52/52/73 39/39/30 38/38/29 
f 28/28/74 27/27/75 37/37/28 40/40/31 
s 2
f 52/52/32 51/51/32 33/33/32 39/39/32 
f 25/25/32 28/28/32 40/40/32 36/36/32 
s 32
f 56/56/33 58/58/33 42/42/33 41/41/33 
f 32/32/33 29/29/33 44/44/33 43/43/33 
s 16
f 46/46/35 62/62/76 64/64/77 38/38/36 
f 27/27/78 30/30/79 45/45/34 37/37/37 
s 64
f 58/58/38 60/60/38 47/47/38 42/42/38 
f 31/31/38 32/32/38 43/43/38 48/48/38 
s 16
f 54/54/80 56/56/81 41/41/40 34/34/39 
f 44/44/41 29/29/82 26/26/83 35/35/42 
s 32
f 47/47/43 60/60/43 62/62/43 46/46/43 
f 45/45/43 30/30/43 31/31/43 48/48/43 
# 62 polygons

